999
dxfrw 0.6.3
  0
SECTION
  2
HEADER
  9
$ACADVER
  1
AC1021
  9
$DWGCODEPAGE
  3
ANSI_1252
  9
$INSBASE
 10
0
 20
0
 30
0
  9
$EXTMIN
 10
10000000000
 20
10000000000
 30
0
  9
$EXTMAX
 10
-10000000000
 20
-10000000000
 30
0
  9
$LIMMIN
 10
0
 20
0
  9
$LIMMAX
 10
12
 20
9
  9
$ORTHOMODE
 70
    0
  9
$REGENMODE
 70
    1
  9
$FILLMODE
 70
    1
  9
$QTEXTMODE
 70
    0
  9
$MIRRTEXT
 70
    0
  9
$LTSCALE
 40
1
  9
$ATTMODE
 70
    1
  9
$TEXTSIZE
 40
0.2
  9
$TRACEWID
 40
0.05
  9
$TEXTSTYLE
  7
Standard
  9
$CLAYER
  8
Cut
  9
$CELTYPE
  6
Continuous
  9
$CECOLOR
 62
  256
  9
$CELTSCALE
 40
1
  9
$DISPSILH
 70
    0
  9
$DIMSCALE
 40
1
  9
$DIMASZ
 40
0.18
  9
$DIMEXO
 40
0.0625
  9
$DIMDLI
 40
0.38
  9
$DIMRND
 40
0
  9
$DIMDLE
 40
0
  9
$DIMEXE
 40
0.18
  9
$DIMTP
 40
0
  9
$DIMTM
 40
0
  9
$DIMTXT
 40
0.18
  9
$DIMCEN
 40
0.09
  9
$DIMTSZ
 40
0
  9
$DIMTOL
 70
    0
  9
$DIMLIM
 70
    0
  9
$DIMTIH
 70
    1
  9
$DIMTOH
 70
    1
  9
$DIMSE1
 70
    0
  9
$DIMSE2
 70
    0
  9
$DIMTAD
 70
    0
  9
$DIMZIN
 70
    0
  9
$DIMBLK
  1

  9
$DIMASO
 70
    1
  9
$DIMSHO
 70
    1
  9
$DIMPOST
  1

  9
$DIMAPOST
  1

  9
$DIMALT
 70
    0
  9
$DIMALTD
 70
    2
  9
$DIMALTF
 40
25.4
  9
$DIMLFAC
 40
1
  9
$DIMTOFL
 70
    0
  9
$DIMTVP
 40
0
  9
$DIMTIX
 70
    0
  9
$DIMSOXD
 70
    0
  9
$DIMSAH
 70
    0
  9
$DIMBLK1
  1

  9
$DIMBLK2
  1

  9
$DIMSTYLE
  2
Standard
  9
$DIMCLRD
 70
    0
  9
$DIMCLRE
 70
    0
  9
$DIMCLRT
 70
    0
  9
$DIMTFAC
 40
1
  9
$DIMGAP
 40
0.09
  9
$DIMJUST
 70
    0
  9
$DIMSD1
 70
    0
  9
$DIMSD2
 70
    0
  9
$DIMTOLJ
 70
    1
  9
$DIMTZIN
 70
    0
  9
$DIMALTZ
 70
    0
  9
$DIMALTTZ
 70
    0
  9
$DIMUPT
 70
    0
  9
$DIMDEC
 70
    4
  9
$DIMTDEC
 70
    4
  9
$DIMALTU
 70
    2
  9
$DIMALTTD
 70
    2
  9
$DIMTXSTY
  7
Standard
  9
$DIMAUNIT
 70
    0
  9
$DIMADEC
 70
    0
  9
$DIMALTRND
 40
0
  9
$DIMAZIN
 70
    0
  9
$DIMDSEP
 70
   46
  9
$DIMATFIT
 70
    3
  9
$DIMFRAC
 70
    0
  9
$DIMLDRBLK
  1

  9
$DIMLUNIT
 70
    2
  9
$DIMLWD
 70
   -2
  9
$DIMLWE
 70
   -2
  9
$DIMTMOVE
 70
    0
  9
$DIMFXL
 40
1
  9
$DIMFXLON
 70
    0
  9
$DIMJOGANG
 40
0.7853981633974483
  9
$DIMTFILL
 70
    0
  9
$DIMTFILLCLR
 70
    0
  9
$DIMARCSYM
 70
    0
  9
$DIMLTYPE
  6

  9
$DIMLTEX1
  6

  9
$DIMLTEX2
  6

  9
$LUNITS
 70
    2
  9
$LUPREC
 70
    4
  9
$SKETCHINC
 40
0.1
  9
$FILLETRAD
 40
0
  9
$AUNITS
 70
    0
  9
$AUPREC
 70
    0
  9
$MENU
  1
.
  9
$ELEVATION
 40
0
  9
$PELEVATION
 40
0
  9
$THICKNESS
 40
0
  9
$LIMCHECK
 70
    0
  9
$CHAMFERA
 40
0
  9
$CHAMFERB
 40
0
  9
$CHAMFERC
 40
0
  9
$CHAMFERD
 40
0
  9
$SKPOLY
 70
    0
  9
$USRTIMER
 70
    1
  9
$ANGBASE
 50
0
  9
$ANGDIR
 70
    0
  9
$PDMODE
 70
    0
  9
$PDSIZE
 40
0
  9
$PLINEWID
 40
0
  9
$SPLFRAME
 70
    1
  9
$SPLINETYPE
 70
    6
  9
$SPLINESEGS
 70
    8
  9
$HANDSEED
  5
20000
  9
$SURFTAB1
 70
    6
  9
$SURFTAB2
 70
    6
  9
$SURFTYPE
 70
    6
  9
$SURFU
 70
    6
  9
$SURFV
 70
    6
  9
$UCSBASE
  2

  9
$UCSNAME
  2

  9
$UCSORG
 10
0
 20
0
 30
0
  9
$UCSXDIR
 10
1
 20
0
 30
0
  9
$UCSYDIR
 10
0
 20
1
 30
0
  9
$UCSORTHOREF
  2

  9
$UCSORTHOVIEW
 70
    0
  9
$UCSORGTOP
 10
0
 20
0
 30
0
  9
$UCSORGBOTTOM
 10
0
 20
0
 30
0
  9
$UCSORGLEFT
 10
0
 20
0
 30
0
  9
$UCSORGRIGHT
 10
0
 20
0
 30
0
  9
$UCSORGFRONT
 10
0
 20
0
 30
0
  9
$UCSORGBACK
 10
0
 20
0
 30
0
  9
$PUCSBASE
  2

  9
$PUCSNAME
  2

  9
$PUCSORG
 10
0
 20
0
 30
0
  9
$PUCSXDIR
 10
1
 20
0
 30
0
  9
$PUCSYDIR
 10
0
 20
1
 30
0
  9
$PUCSORTHOREF
  2

  9
$PUCSORTHOVIEW
 70
    0
  9
$PUCSORGTOP
 10
0
 20
0
 30
0
  9
$PUCSORGBOTTOM
 10
0
 20
0
 30
0
  9
$PUCSORGLEFT
 10
0
 20
0
 30
0
  9
$PUCSORGRIGHT
 10
0
 20
0
 30
0
  9
$PUCSORGFRONT
 10
0
 20
0
 30
0
  9
$PUCSORGBACK
 10
0
 20
0
 30
0
  9
$USERI1
 70
    0
  9
$USERI2
 70
    0
  9
$USERI3
 70
    0
  9
$USERI4
 70
    0
  9
$USERI5
 70
    0
  9
$USERR1
 40
0
  9
$USERR2
 40
0
  9
$USERR3
 40
0
  9
$USERR4
 40
0
  9
$USERR5
 40
0
  9
$WORLDVIEW
 70
    1
  9
$SHADEDGE
 70
    3
  9
$SHADEDIF
 70
   70
  9
$TILEMODE
 70
    1
  9
$MAXACTVP
 70
   64
  9
$PINSBASE
 10
0
 20
0
 30
0
  9
$PLIMCHECK
 70
    0
  9
$PEXTMIN
 10
1e+20
 20
1e+20
 30
1e+20
  9
$PEXTMAX
 10
-1e+20
 20
-1e+20
 30
-1e+20
  9
$GRIDMODE
 70
    1
  9
$SNAPSTYLE
 70
    0
  9
$PLIMMIN
 10
0
 20
0
  9
$PLIMMAX
 10
12
 20
9
  9
$UNITMODE
 70
    0
  9
$VISRETAIN
 70
    1
  9
$PLINEGEN
 70
    0
  9
$PSLTSCALE
 70
    1
  9
$TREEDEPTH
 70
 3020
  9
$CMLSTYLE
  2
Standard
  9
$CMLJUST
 70
    0
  9
$CMLSCALE
 40
1
  9
$PROXYGRAPHICS
 70
    1
  9
$MEASUREMENT
 70
    0
  9
$CELWEIGHT
370
   -1
  9
$ENDCAPS
280
    0
  9
$JOINSTYLE
280
    0
  9
$LWDISPLAY
290
    0
  9
$INSUNITS
 70
    0
  9
$HYPERLINKBASE
  1

  9
$STYLESHEET
  1

  9
$XEDIT
290
    1
  9
$CEPSNTYPE
380
    0
  9
$PSTYLEMODE
290
    1
  9
$EXTNAMES
290
    1
  9
$PSVPSCALE
 40
0
  9
$OLESTARTUP
290
    0
  9
$SORTENTS
280
  127
  9
$INDEXCTL
280
    0
  9
$HIDETEXT
280
    0
  9
$XCLIPFRAME
290
    2
  9
$HALOGAP
280
    0
  9
$OBSCOLOR
 70
  257
  9
$OBSLTYPE
280
    0
  9
$INTERSECTIONDISPLAY
280
    0
  9
$INTERSECTIONCOLOR
 70
  257
  9
$DIMASSOC
280
    1
  9
$PROJECTNAME
  1

  9
$CAMERADISPLAY
290
    0
  9
$LENSLENGTH
 40
50
  9
$CAMERAHEIGHT
 40
0
  9
$STEPSPERSEC
 40
2
  9
$STEPSIZE
 40
6
  9
$3DDWFPREC
 40
2
  9
$PSOLWIDTH
 40
0.25
  9
$PSOLHEIGHT
 40
4
  9
$LOFTANG1
 40
1.570796326794896
  9
$LOFTANG2
 40
1.570796326794896
  9
$LOFTMAG1
 40
0
  9
$LOFTMAG2
 40
0
  9
$LOFTPARAM
 70
    7
  9
$LOFTNORMALS
280
    1
  9
$LATITUDE
 40
37.795
  9
$LONGITUDE
 40
-122.394
  9
$NORTHDIRECTION
 40
0
  9
$TIMEZONE
 70
-8000
  9
$LIGHTGLYPHDISPLAY
280
    1
  9
$TILEMODELIGHTSYNCH
280
    1
  9
$SOLIDHIST
280
    0
  9
$SHOWHIST
280
    1
  9
$DWFFRAME
280
    2
  9
$DGNFRAME
280
    0
  9
$REALWORLDSCALE
290
    1
  9
$INTERFERECOLOR
 62
    1
  9
$CSHADOW
280
    0
  9
$SHADOWPLANELOCATION
 40
0
  0
ENDSEC
  0
SECTION
  2
CLASSES
  0
ENDSEC
  0
SECTION
  2
TABLES
  0
TABLE
  2
VPORT
  5
8
330
0
100
AcDbSymbolTable
 70
    1
  0
VPORT
  5
31
330
2
100
AcDbSymbolTableRecord
100
AcDbViewportTableRecord
  2
*ACTIVE
 70
    0
 10
0
 20
0
 11
1
 21
1
 12
212.2053078857174
 22
141.0683012649371
 13
0
 23
0
 14
10
 24
10
 15
10
 25
10
 16
0
 26
0
 36
1
 17
0
 27
0
 37
0
 40
426.8220397246815
 41
1.774011299435028
 42
50
 43
0
 44
0
 50
0
 51
0
 71
    0
 72
  100
 73
    1
 74
    3
 75
    0
 76
    1
 77
    0
 78
    0
281
    0
 65
    1
110
0
120
0
130
0
111
1
121
0
131
0
112
0
122
1
132
0
 79
    0
146
0
348
10020
 60
    7
 61
    5
292
1
282
    1
141
0
142
0
 63
  250
421
3358443
  0
ENDTAB
  0
TABLE
  2
LTYPE
  5
5
330
0
100
AcDbSymbolTable
 70
    4
  0
LTYPE
  5
14
330
5
100
AcDbSymbolTableRecord
100
AcDbLinetypeTableRecord
  2
ByBlock
 70
    0
  3

 72
   65
 73
    0
 40
0
  0
LTYPE
  5
15
330
5
100
AcDbSymbolTableRecord
100
AcDbLinetypeTableRecord
  2
ByLayer
 70
    0
  3

 72
   65
 73
    0
 40
0
  0
LTYPE
  5
16
330
5
100
AcDbSymbolTableRecord
100
AcDbLinetypeTableRecord
  2
Continuous
 70
    0
  3
Solid line
 72
   65
 73
    0
 40
0
  0
LTYPE
  5
32
330
5
100
AcDbSymbolTableRecord
100
AcDbLinetypeTableRecord
  2
DOT
 70
    0
  3
Dot . . . . . . . . . . . . . . . . . . . . . .
 72
   65
 73
    2
 40
6.35
 49
0
 74
    0
 49
-6.35
 74
    0
  0
LTYPE
  5
33
330
5
100
AcDbSymbolTableRecord
100
AcDbLinetypeTableRecord
  2
DOTTINY
 70
    0
  3
Dot (.15x) .....................................
 72
   65
 73
    2
 40
0.9525
 49
0
 74
    0
 49
-0.9525
 74
    0
  0
LTYPE
  5
34
330
5
100
AcDbSymbolTableRecord
100
AcDbLinetypeTableRecord
  2
DOT2
 70
    0
  3
Dot (.5x) .....................................
 72
   65
 73
    2
 40
3.175
 49
0
 74
    0
 49
-3.175
 74
    0
  0
LTYPE
  5
35
330
5
100
AcDbSymbolTableRecord
100
AcDbLinetypeTableRecord
  2
DOTX2
 70
    0
  3
Dot (2x) .  .  .  .  .  .  .  .  .  .  .  .  .
 72
   65
 73
    2
 40
12.7
 49
0
 74
    0
 49
-12.7
 74
    0
  0
LTYPE
  5
36
330
5
100
AcDbSymbolTableRecord
100
AcDbLinetypeTableRecord
  2
DASHED
 70
    0
  3
Dashed _ _ _ _ _ _ _ _ _ _ _ _ _ _ _ _ _
 72
   65
 73
    2
 40
19.05
 49
12.7
 74
    0
 49
-6.35
 74
    0
  0
LTYPE
  5
37
330
5
100
AcDbSymbolTableRecord
100
AcDbLinetypeTableRecord
  2
DASHEDTINY
 70
    0
  3
Dashed (.15x) _ _ _ _ _ _ _ _ _ _ _ _ _ _ _ _ _
 72
   65
 73
    2
 40
2.8575
 49
1.905
 74
    0
 49
-0.9525
 74
    0
  0
LTYPE
  5
38
330
5
100
AcDbSymbolTableRecord
100
AcDbLinetypeTableRecord
  2
DASHED2
 70
    0
  3
Dashed (.5x) _ _ _ _ _ _ _ _ _ _ _ _ _ _ _ _ _
 72
   65
 73
    2
 40
9.524999999999999
 49
6.35
 74
    0
 49
-3.175
 74
    0
  0
LTYPE
  5
39
330
5
100
AcDbSymbolTableRecord
100
AcDbLinetypeTableRecord
  2
DASHEDX2
 70
    0
  3
Dashed (2x) ____  ____  ____  ____  ____  ___
 72
   65
 73
    2
 40
38.09999999999999
 49
25.4
 74
    0
 49
-12.7
 74
    0
  0
LTYPE
  5
3A
330
5
100
AcDbSymbolTableRecord
100
AcDbLinetypeTableRecord
  2
DASHDOT
 70
    0
  3
Dash dot __ . __ . __ . __ . __ . __ . __ . __
 72
   65
 73
    4
 40
25.4
 49
12.7
 74
    0
 49
-6.35
 74
    0
 49
0
 74
    0
 49
-6.35
 74
    0
  0
LTYPE
  5
3B
330
5
100
AcDbSymbolTableRecord
100
AcDbLinetypeTableRecord
  2
DASHDOTTINY
 70
    0
  3
Dash dot (.15x) _._._._._._._._._._._._._._._.
 72
   65
 73
    4
 40
3.81
 49
1.905
 74
    0
 49
-0.9525
 74
    0
 49
0
 74
    0
 49
-0.9525
 74
    0
  0
LTYPE
  5
3C
330
5
100
AcDbSymbolTableRecord
100
AcDbLinetypeTableRecord
  2
DASHDOT2
 70
    0
  3
Dash dot (.5x) _._._._._._._._._._._._._._._.
 72
   65
 73
    4
 40
12.7
 49
6.35
 74
    0
 49
-3.175
 74
    0
 49
0
 74
    0
 49
-3.175
 74
    0
  0
LTYPE
  5
3D
330
5
100
AcDbSymbolTableRecord
100
AcDbLinetypeTableRecord
  2
DASHDOTX2
 70
    0
  3
Dash dot (2x) ____  .  ____  .  ____  .  ___
 72
   65
 73
    4
 40
50.8
 49
25.4
 74
    0
 49
-12.7
 74
    0
 49
0
 74
    0
 49
-12.7
 74
    0
  0
LTYPE
  5
3E
330
5
100
AcDbSymbolTableRecord
100
AcDbLinetypeTableRecord
  2
DIVIDE
 70
    0
  3
Divide ____ . . ____ . . ____ . . ____ . . ____
 72
   65
 73
    6
 40
31.75
 49
12.7
 74
    0
 49
-6.35
 74
    0
 49
0
 74
    0
 49
-6.35
 74
    0
 49
0
 74
    0
 49
-6.35
 74
    0
  0
LTYPE
  5
3F
330
5
100
AcDbSymbolTableRecord
100
AcDbLinetypeTableRecord
  2
DIVIDETINY
 70
    0
  3
Divide (.15x) __..__..__..__..__..__..__..__.._
 72
   65
 73
    6
 40
4.7625
 49
1.905
 74
    0
 49
-0.9525
 74
    0
 49
0
 74
    0
 49
-0.9525
 74
    0
 49
0
 74
    0
 49
-0.9525
 74
    0
  0
LTYPE
  5
40
330
5
100
AcDbSymbolTableRecord
100
AcDbLinetypeTableRecord
  2
DIVIDE2
 70
    0
  3
Divide (.5x) __..__..__..__..__..__..__..__.._
 72
   65
 73
    6
 40
15.875
 49
6.35
 74
    0
 49
-3.175
 74
    0
 49
0
 74
    0
 49
-3.175
 74
    0
 49
0
 74
    0
 49
-3.175
 74
    0
  0
LTYPE
  5
41
330
5
100
AcDbSymbolTableRecord
100
AcDbLinetypeTableRecord
  2
DIVIDEX2
 70
    0
  3
Divide (2x) ________  .  .  ________  .  .  _
 72
   65
 73
    6
 40
63.5
 49
25.4
 74
    0
 49
-12.7
 74
    0
 49
0
 74
    0
 49
-12.7
 74
    0
 49
0
 74
    0
 49
-12.7
 74
    0
  0
LTYPE
  5
42
330
5
100
AcDbSymbolTableRecord
100
AcDbLinetypeTableRecord
  2
BORDER
 70
    0
  3
Border __ __ . __ __ . __ __ . __ __ . __ __ .
 72
   65
 73
    6
 40
44.45
 49
12.7
 74
    0
 49
-6.35
 74
    0
 49
12.7
 74
    0
 49
-6.35
 74
    0
 49
0
 74
    0
 49
-6.35
 74
    0
  0
LTYPE
  5
43
330
5
100
AcDbSymbolTableRecord
100
AcDbLinetypeTableRecord
  2
BORDERTINY
 70
    0
  3
Border (.15x) __.__.__.__.__.__.__.__.__.__.__.
 72
   65
 73
    6
 40
6.6675
 49
1.905
 74
    0
 49
-0.9525
 74
    0
 49
1.905
 74
    0
 49
-0.9525
 74
    0
 49
0
 74
    0
 49
-0.9525
 74
    0
  0
LTYPE
  5
44
330
5
100
AcDbSymbolTableRecord
100
AcDbLinetypeTableRecord
  2
BORDER2
 70
    0
  3
Border (.5x) __.__.__.__.__.__.__.__.__.__.__.
 72
   65
 73
    6
 40
22.225
 49
6.35
 74
    0
 49
-3.175
 74
    0
 49
6.35
 74
    0
 49
-3.175
 74
    0
 49
0
 74
    0
 49
-3.175
 74
    0
  0
LTYPE
  5
45
330
5
100
AcDbSymbolTableRecord
100
AcDbLinetypeTableRecord
  2
BORDERX2
 70
    0
  3
Border (2x) ____  ____  .  ____  ____  .  ___
 72
   65
 73
    6
 40
88.89999999999999
 49
25.4
 74
    0
 49
-12.7
 74
    0
 49
25.4
 74
    0
 49
-12.7
 74
    0
 49
0
 74
    0
 49
-12.7
 74
    0
  0
LTYPE
  5
46
330
5
100
AcDbSymbolTableRecord
100
AcDbLinetypeTableRecord
  2
CENTER
 70
    0
  3
Center ____ _ ____ _ ____ _ ____ _ ____ _ ____
 72
   65
 73
    4
 40
50.8
 49
31.75
 74
    0
 49
-6.35
 74
    0
 49
6.35
 74
    0
 49
-6.35
 74
    0
  0
LTYPE
  5
47
330
5
100
AcDbSymbolTableRecord
100
AcDbLinetypeTableRecord
  2
CENTERTINY
 70
    0
  3
Center (.15x) ___ _ ___ _ ___ _ ___ _ ___ _ ___
 72
   65
 73
    4
 40
7.619999999999999
 49
4.7625
 74
    0
 49
-0.9525
 74
    0
 49
0.9525
 74
    0
 49
-0.9525
 74
    0
  0
LTYPE
  5
48
330
5
100
AcDbSymbolTableRecord
100
AcDbLinetypeTableRecord
  2
CENTER2
 70
    0
  3
Center (.5x) ___ _ ___ _ ___ _ ___ _ ___ _ ___
 72
   65
 73
    4
 40
28.575
 49
19.05
 74
    0
 49
-3.175
 74
    0
 49
3.175
 74
    0
 49
-3.175
 74
    0
  0
LTYPE
  5
49
330
5
100
AcDbSymbolTableRecord
100
AcDbLinetypeTableRecord
  2
CENTERX2
 70
    0
  3
Center (2x) ________  __  ________  __  _____
 72
   65
 73
    4
 40
101.6
 49
63.5
 74
    0
 49
-12.7
 74
    0
 49
12.7
 74
    0
 49
-12.7
 74
    0
  0
ENDTAB
  0
TABLE
  2
LAYER
  5
2
330
0
100
AcDbSymbolTable
 70
    1
  0
LAYER
  5
10
330
2
100
AcDbSymbolTableRecord
100
AcDbLayerTableRecord
  2
0
 70
    1
 62
    7
  6
CONTINUOUS
370
   -3
390
F
  0
LAYER
  5
4A
330
2
100
AcDbSymbolTableRecord
100
AcDbLayerTableRecord
  2
Cut
 70
    0
 62
    4
  6
CONTINUOUS
370
    0
390
F
  0
LAYER
  5
4B
330
2
100
AcDbSymbolTableRecord
100
AcDbLayerTableRecord
  2
Defpoints
 70
    0
 62
    7
  6
CONTINUOUS
290
0
370
   -3
390
F
  0
LAYER
  5
4C
330
2
100
AcDbSymbolTableRecord
100
AcDbLayerTableRecord
  2
Guide Text
 70
    0
 62
  254
420
14671839
  6
CONTINUOUS
370
    0
390
F
  0
LAYER
  5
4D
330
2
100
AcDbSymbolTableRecord
100
AcDbLayerTableRecord
  2
Guidelines
 70
    0
 62
  251
420
5329235
  6
CONTINUOUS
290
0
370
    0
390
F
  0
LAYER
  5
4E
330
2
100
AcDbSymbolTableRecord
100
AcDbLayerTableRecord
  2
Marker
 70
    0
 62
    1
  6
CONTINUOUS
370
   -3
390
F
  0
LAYER
  5
4F
330
2
100
AcDbSymbolTableRecord
100
AcDbLayerTableRecord
  2
Vector
 70
    0
 62
  255
  6
CONTINUOUS
370
   -3
390
F
  0
ENDTAB
  0
TABLE
  2
STYLE
  5
3
330
0
100
AcDbSymbolTable
 70
    3
  0
STYLE
  5
50
330
2
100
AcDbSymbolTableRecord
100
AcDbTextStyleTableRecord
  2
standard
 70
    0
 40
0
 41
1
 50
0
 71
    0
 42
1
  3
standard
  4

  0
ENDTAB
  0
TABLE
  2
VIEW
  5
6
330
0
100
AcDbSymbolTable
 70
    0
  0
ENDTAB
  0
TABLE
  2
UCS
  5
7
330
0
100
AcDbSymbolTable
 70
    0
  0
ENDTAB
  0
TABLE
  2
APPID
  5
9
330
0
100
AcDbSymbolTable
 70
    1
  0
APPID
  5
12
330
9
100
AcDbSymbolTableRecord
100
AcDbRegAppTableRecord
  2
ACAD
 70
    0
  0
APPID
  5
51
330
9
100
AcDbSymbolTableRecord
100
AcDbRegAppTableRecord
  2
LibreCad
 70
    0
  0
ENDTAB
  0
TABLE
  2
DIMSTYLE
  5
A
330
0
100
AcDbSymbolTable
 70
    1
100
AcDbDimStyleTable
 71
    1
  0
DIMSTYLE
105
52
330
A
100
AcDbSymbolTableRecord
100
AcDbDimStyleTableRecord
  2
Standard
 70
    0
 40
1
 41
0.18
 42
0.0625
 43
0.38
 44
0.18
 45
0
 46
0
 47
0
 48
0
 49
1
140
0.18
141
0.09
142
0
143
25.4
144
1
145
0
146
1
147
0.09
148
0
 71
    0
 72
    0
 73
    1
 74
    1
 75
    0
 76
    0
 77
    0
 78
    0
 79
    0
170
    0
171
    2
172
    0
173
    0
174
    0
175
    0
176
    0
177
    0
178
    0
179
    0
271
    4
272
    4
273
    2
274
    2
275
    0
276
    0
277
    2
278
   46
279
    0
280
    0
281
    0
282
    0
283
    1
284
    0
285
    0
286
    0
288
    0
289
    3
340
Standard
341

371
   -2
372
   -2
  0
ENDTAB
  0
TABLE
  2
BLOCK_RECORD
  5
1
330
0
100
AcDbSymbolTable
 70
    2
  0
BLOCK_RECORD
  5
1F
330
1
100
AcDbSymbolTableRecord
100
AcDbBlockTableRecord
  2
*Model_Space
 70
    0
280
    1
281
    0
  0
BLOCK_RECORD
  5
1E
330
1
100
AcDbSymbolTableRecord
100
AcDbBlockTableRecord
  2
*Paper_Space
 70
    0
280
    1
281
    0
  0
BLOCK_RECORD
  5
53
330
1
100
AcDbSymbolTableRecord
100
AcDbBlockTableRecord
  2
*D1
 70
    0
280
    1
281
    0
  0
BLOCK_RECORD
  5
56
330
1
100
AcDbSymbolTableRecord
100
AcDbBlockTableRecord
  2
*D2
 70
    0
280
    1
281
    0
  0
BLOCK_RECORD
  5
59
330
1
100
AcDbSymbolTableRecord
100
AcDbBlockTableRecord
  2
logo
 70
    0
280
    1
281
    0
  0
ENDTAB
  0
ENDSEC
  0
SECTION
  2
BLOCKS
  0
BLOCK
  5
20
330
1F
100
AcDbEntity
  8
0
100
AcDbBlockBegin
  2
*Model_Space
 70
    0
 10
0
 20
0
 30
0
  3
*Model_Space
  1

  0
ENDBLK
  5
21
330
1F
100
AcDbEntity
  8
0
100
AcDbBlockEnd
  0
BLOCK
  5
1C
330
1B
100
AcDbEntity
  8
0
100
AcDbBlockBegin
  2
*Paper_Space
 70
    0
 10
0
 20
0
 30
0
  3
*Paper_Space
  1

  0
ENDBLK
  5
1D
330
1F
100
AcDbEntity
  8
0
100
AcDbBlockEnd
  0
BLOCK
  5
54
330
53
100
AcDbEntity
  8
0
100
AcDbBlockBegin
  2
*D1
 70
    1
 10
0
 20
0
  3
*D1
  1

  0
LINE
  5
5C
100
AcDbEntity
  8
0
  6
ByBlock
 62
    0
370
   -2
100
AcDbLine
 10
5
 20
-24.28672006660412
 11
196.41
 21
-24.28672006660412
  0
SOLID
  5
5D
100
AcDbEntity
  8
0
  6
ByBlock
 62
    0
370
   -2
100
AcDbTrace
 10
5
 20
-24.28672006660412
 30
0
 11
5.18
 21
-24.25674757124447
 31
0
 12
5.18
 22
-24.31669256196376
 32
0
 13
5.18
 23
-24.31669256196376
 33
0
  0
SOLID
  5
5E
100
AcDbEntity
  8
0
  6
ByBlock
 62
    0
370
   -2
100
AcDbTrace
 10
389
 20
-24.28672006660412
 30
0
 11
388.82
 21
-24.31669256196376
 31
0
 12
388.82
 22
-24.25674757124447
 32
0
 13
388.82
 23
-24.25674757124447
 33
0
  0
LINE
  5
5F
100
AcDbEntity
  8
0
  6
ByBlock
 62
    0
370
   -2
100
AcDbLine
 10
197.59
 20
-24.28672006660412
 11
389
 21
-24.28672006660412
  0
MTEXT
  5
60
100
AcDbEntity
  8
0
  6
CONTINUOUS
 62
    0
370
   -2
100
AcDbMText
 10
197
 20
-24.28672006660412
 30
0
 40
0.18
 41
1.000000000000011
 71
    5
 72
    1
  1
384.0000
  7
Standard
210
0
220
0
230
1
 50
0
 73
    2
 44
1
  0
LINE
  5
61
100
AcDbEntity
  8
0
  6
ByBlock
 62
    0
370
   -2
100
AcDbLine
 10
4.999999999999998
 20
4.937499999999999
 11
5
 21
-24.46672006660412
  0
LINE
  5
62
100
AcDbEntity
  8
0
  6
ByBlock
 62
    0
370
   -2
100
AcDbLine
 10
389
 20
4.937499999999999
 11
389
 21
-24.46672006660412
  0
ENDBLK
  5
55
330
53
100
AcDbEntity
  8
0
100
AcDbBlockEnd
  0
BLOCK
  5
57
330
56
100
AcDbEntity
  8
0
100
AcDbBlockBegin
  2
*D2
 70
    1
 10
0
 20
0
  3
*D2
  1

  0
LINE
  5
63
100
AcDbEntity
  8
0
  6
ByBlock
 62
    0
370
   -2
100
AcDbLine
 10
-22.90666348504881
 20
389
 11
-22.90666348504882
 21
197.18
  0
SOLID
  5
64
100
AcDbEntity
  8
0
  6
ByBlock
 62
    0
370
   -2
100
AcDbTrace
 10
-22.90666348504881
 20
389
 30
0
 11
-22.87669098968917
 21
388.82
 31
0
 12
-22.93663598040845
 22
388.82
 32
0
 13
-22.93663598040845
 23
388.82
 33
0
  0
SOLID
  5
65
100
AcDbEntity
  8
0
  6
ByBlock
 62
    0
370
   -2
100
AcDbTrace
 10
-22.90666348504884
 20
5.000000000000001
 30
0
 11
-22.93663598040848
 21
5.180000000000001
 31
0
 12
-22.87669098968919
 22
5.180000000000001
 32
0
 13
-22.87669098968919
 23
5.180000000000001
 33
0
  0
LINE
  5
66
100
AcDbEntity
  8
0
  6
ByBlock
 62
    0
370
   -2
100
AcDbLine
 10
-22.90666348504882
 20
196.82
 11
-22.90666348504884
 21
5.000000000000001
  0
MTEXT
  5
67
100
AcDbEntity
  8
0
  6
CONTINUOUS
 62
    0
370
   -2
100
AcDbMText
 10
-22.90666348504883
 20
197
 30
0
 40
0.18
 41
1.000000000000011
 71
    5
 72
    1
  1
384.0000
  7
Standard
210
0
220
0
230
1
 50
0
 73
    2
 44
1
  0
LINE
  5
68
100
AcDbEntity
  8
0
  6
ByBlock
 62
    0
370
   -2
100
AcDbLine
 10
4.9375
 20
389
 11
-23.08666348504881
 21
389
  0
LINE
  5
69
100
AcDbEntity
  8
0
  6
ByBlock
 62
    0
370
   -2
100
AcDbLine
 10
4.937499999999998
 20
4.999999999999999
 11
-23.08666348504884
 21
5.000000000000001
  0
ENDBLK
  5
58
330
56
100
AcDbEntity
  8
0
100
AcDbBlockEnd
  0
BLOCK
  5
5A
330
59
100
AcDbEntity
  8
0
100
AcDbBlockBegin
  2
logo
 70
    0
 10
0
 20
0
  3
logo
  1

  0
SPLINE
  5
6A
100
AcDbEntity
  8
0
  6
ByLayer
 62
    7
370
   -1
100
AcDbSpline
210
0
220
0
230
0
 70
    8
 71
    3
 72
    8
 73
    4
 74
    0
 42
1e-07
 43
1e-07
 40
0
 40
0
 40
0
 40
0
 40
1
 40
1
 40
1
 40
1
 10
31.89919099999997
 20
16.91027299999999
 30
0
 10
16.250564
 20
25.77092300000001
 30
0
 10
3.078792000000021
 20
33.610365
 30
0
 10
2.628587999999979
 20
34.33125799999999
 30
0
  0
SPLINE
  5
6B
100
AcDbEntity
  8
0
  6
ByLayer
 62
    7
370
   -1
100
AcDbSpline
210
0
220
0
230
0
 70
    8
 71
    3
 72
    8
 73
    4
 74
    0
 42
1e-07
 43
1e-07
 40
0
 40
0
 40
0
 40
0
 40
1
 40
1
 40
1
 40
1
 10
2.628587999999979
 20
34.33125799999999
 30
0
 10
2.11794500000002
 20
35.14893000000001
 30
0
 10
1.69529799999998
 20
48.18867800000001
 30
0
 10
1.505017000000009
 20
68.99630999999999
 30
0
  0
SPLINE
  5
6C
100
AcDbEntity
  8
0
  6
ByLayer
 62
    7
370
   -1
100
AcDbSpline
210
0
220
0
230
0
 70
    8
 71
    3
 72
    8
 73
    4
 74
    0
 42
1e-07
 43
1e-07
 40
0
 40
0
 40
0
 40
0
 40
1
 40
1
 40
1
 40
1
 10
1.505017000000009
 20
68.99630999999999
 30
0
 10
1.207765999999992
 20
101.501475
 30
0
 10
1.240734999999972
 20
102.39078
 30
0
 10
2.800000000000011
 20
103.926593
 30
0
  0
SPLINE
  5
6D
100
AcDbEntity
  8
0
  6
ByLayer
 62
    7
370
   -1
100
AcDbSpline
210
0
220
0
230
0
 70
    8
 71
    3
 72
    8
 73
    4
 74
    0
 42
1e-07
 43
1e-07
 40
0
 40
0
 40
0
 40
0
 40
1
 40
1
 40
1
 40
1
 10
2.800000000000011
 20
103.926593
 30
0
 10
5.405149999999992
 20
106.492553
 30
0
 10
58.98494500000001
 20
137.599995
 30
0
 10
60.799432
 20
137.599995
 30
0
  0
SPLINE
  5
6E
100
AcDbEntity
  8
0
  6
ByLayer
 62
    7
370
   -1
100
AcDbSpline
210
0
220
0
230
0
 70
    8
 71
    3
 72
    8
 73
    4
 74
    0
 42
1e-07
 43
1e-07
 40
0
 40
0
 40
0
 40
0
 40
1
 40
1
 40
1
 40
1
 10
60.799432
 20
137.599995
 30
0
 10
62.99042
 20
137.599995
 30
0
 10
64.93089700000002
 20
136.579193
 30
0
 10
93.162068
 20
120.5754
 30
0
  0
SPLINE
  5
6F
100
AcDbEntity
  8
0
  6
ByLayer
 62
    7
370
   -1
100
AcDbSpline
210
0
220
0
230
0
 70
    8
 71
    3
 72
    8
 73
    4
 74
    0
 42
1e-07
 43
1e-07
 40
0
 40
0
 40
0
 40
0
 40
1
 40
1
 40
1
 40
1
 10
93.162068
 20
120.5754
 30
0
 10
122.293605
 20
104.061203
 30
0
 10
119.714745
 20
105.662393
 30
0
 10
120.714308
 20
103.46859
 30
0
  0
SPLINE
  5
70
100
AcDbEntity
  8
0
  6
ByLayer
 62
    7
370
   -1
100
AcDbSpline
210
0
220
0
230
0
 70
    8
 71
    3
 72
    8
 73
    4
 74
    0
 42
1e-07
 43
1e-07
 40
0
 40
0
 40
0
 40
0
 40
1
 40
1
 40
1
 40
1
 10
120.714308
 20
103.46859
 30
0
 10
121.237238
 20
102.320895
 30
0
 10
121.576935
 20
89.51043
 30
0
 10
121.635938
 20
68.71239799999999
 30
0
  0
SPLINE
  5
71
100
AcDbEntity
  8
0
  6
ByLayer
 62
    7
370
   -1
100
AcDbSpline
210
0
220
0
230
0
 70
    8
 71
    3
 72
    8
 73
    4
 74
    0
 42
1e-07
 43
1e-07
 40
0
 40
0
 40
0
 40
0
 40
1
 40
1
 40
1
 40
1
 10
121.635938
 20
68.71239799999999
 30
0
 10
121.723762
 20
37.76067799999998
 30
0
 10
121.640438
 20
35.689628
 30
0
 10
120.264698
 20
34.37760800000001
 30
0
  0
SPLINE
  5
72
100
AcDbEntity
  8
0
  6
ByLayer
 62
    7
370
   -1
100
AcDbSpline
210
0
220
0
230
0
 70
    8
 71
    3
 72
    8
 73
    4
 74
    0
 42
1e-07
 43
1e-07
 40
0
 40
0
 40
0
 40
0
 40
1
 40
1
 40
1
 40
1
 10
120.264698
 20
34.37760800000001
 30
0
 10
118.961468
 20
33.13528500000001
 30
0
 10
71.99371100000002
 20
5.306318000000005
 30
0
 10
65.75779199999999
 20
2.081603000000001
 30
0
  0
SPLINE
  5
73
100
AcDbEntity
  8
0
  6
ByLayer
 62
    7
370
   -1
100
AcDbSpline
210
0
220
0
230
0
 70
    8
 71
    3
 72
    8
 73
    4
 74
    0
 42
1e-07
 43
1e-07
 40
0
 40
0
 40
0
 40
0
 40
1
 40
1
 40
1
 40
1
 10
65.75779199999999
 20
2.081603000000001
 30
0
 10
64.39470599999999
 20
1.376722999999998
 30
0
 10
62.62060700000001
 20
0.8000030000000038
 30
0
 10
61.815347
 20
0.8000030000000038
 30
0
  0
SPLINE
  5
74
100
AcDbEntity
  8
0
  6
ByLayer
 62
    7
370
   -1
100
AcDbSpline
210
0
220
0
230
0
 70
    8
 71
    3
 72
    8
 73
    4
 74
    0
 42
1e-07
 43
1e-07
 40
0
 40
0
 40
0
 40
0
 40
1
 40
1
 40
1
 40
1
 10
61.815347
 20
0.8000030000000038
 30
0
 10
61.010088
 20
0.8000030000000038
 30
0
 10
47.54781800000001
 20
8.049622999999997
 30
0
 10
31.89919099999997
 20
16.91027299999999
 30
0
  0
LWPOLYLINE
  5
75
100
AcDbEntity
  8
0
  6
ByLayer
 62
    7
370
   -1
100
AcDbPolyline
 90
    1
 70
    1
 43
0
 10
31.89919099999997
 20
16.91027299999999
  0
SPLINE
  5
76
100
AcDbEntity
  8
0
  6
ByLayer
 62
    7
370
   -1
100
AcDbSpline
210
0
220
0
230
0
 70
    8
 71
    3
 72
    8
 73
    4
 74
    0
 42
1e-07
 43
1e-07
 40
0
 40
0
 40
0
 40
0
 40
1
 40
1
 40
1
 40
1
 10
80.86326800000001
 20
103.343648
 30
0
 10
70.118066
 20
109.447838
 30
0
 10
61.097556
 20
114.342682
 30
0
 10
60.81769199999999
 20
114.221085
 30
0
  0
SPLINE
  5
77
100
AcDbEntity
  8
0
  6
ByLayer
 62
    7
370
   -1
100
AcDbSpline
210
0
220
0
230
0
 70
    8
 71
    3
 72
    8
 73
    4
 74
    0
 42
1e-07
 43
1e-07
 40
0
 40
0
 40
0
 40
0
 40
1
 40
1
 40
1
 40
1
 10
60.81769199999999
 20
114.221085
 30
0
 10
60.53782699999999
 20
114.099488
 30
0
 10
51.77392700000001
 20
108.99438
 30
0
 10
41.34235799999999
 20
102.876405
 30
0
  0
LWPOLYLINE
  5
78
100
AcDbEntity
  8
0
  6
ByLayer
 62
    7
370
   -1
100
AcDbPolyline
 90
    5
 70
    0
 43
0
 10
85.075973
 20
37.599998
 10
100.806165
 20
46.80000000000001
 10
100.603088
 20
69.522555
 10
100.399995
 20
92.24511800000001
 10
80.86326800000001
 20
103.343648
  0
SPLINE
  5
79
100
AcDbEntity
  8
0
  6
ByLayer
 62
    7
370
   -1
100
AcDbSpline
210
0
220
0
230
0
 70
    8
 71
    3
 72
    8
 73
    4
 74
    0
 42
1e-07
 43
1e-07
 40
0
 40
0
 40
0
 40
0
 40
1
 40
1
 40
1
 40
1
 10
65.649114
 20
26.23571200000001
 30
0
 10
67.682276
 20
27.42606699999999
 30
0
 10
76.424363
 20
32.54000200000002
 30
0
 10
85.075973
 20
37.599997
 30
0
  0
LWPOLYLINE
  5
7A
100
AcDbEntity
  8
0
  6
ByLayer
 62
    7
370
   -1
100
AcDbPolyline
 90
    7
 70
    0
 43
0
 10
41.34235799999999
 20
102.876405
 10
22.37586900000002
 20
91.752825
 10
22.58793400000002
 20
68.972453
 10
22.79999900000001
 20
46.19208700000001
 10
42.376228
 20
35.13174699999999
 10
61.95245599999998
 20
24.07142199999998
 10
65.649114
 20
26.23571200000001
  0
SPLINE
  5
7B
100
AcDbEntity
  8
0
  6
ByLayer
 62
    7
370
   -1
100
AcDbSpline
210
0
220
0
230
0
 70
    8
 71
    3
 72
    8
 73
    4
 74
    0
 42
1e-07
 43
1e-07
 40
0
 40
0
 40
0
 40
0
 40
1
 40
1
 40
1
 40
1
 10
166.05489
 20
16.64766
 30
0
 10
150.685072
 20
25.357778
 30
0
 10
137.461883
 20
33.36527999999998
 30
0
 10
136.67001
 20
34.44210799999999
 30
0
  0
SPLINE
  5
7C
100
AcDbEntity
  8
0
  6
ByLayer
 62
    7
370
   -1
100
AcDbSpline
210
0
220
0
230
0
 70
    8
 71
    3
 72
    8
 73
    4
 74
    0
 42
1e-07
 43
1e-07
 40
0
 40
0
 40
0
 40
0
 40
1
 40
1
 40
1
 40
1
 10
136.67001
 20
34.44210799999999
 30
0
 10
135.341602
 20
36.24856499999999
 30
0
 10
135.22407
 20
38.961128
 30
0
 10
135.15042
 20
69.513068
 30
0
  0
SPLINE
  5
7D
100
AcDbEntity
  8
0
  6
ByLayer
 62
    7
370
   -1
100
AcDbSpline
210
0
220
0
230
0
 70
    8
 71
    3
 72
    8
 73
    4
 74
    0
 42
1e-07
 43
1e-07
 40
0
 40
0
 40
0
 40
0
 40
1
 40
1
 40
1
 40
1
 10
135.15042
 20
69.513068
 30
0
 10
135.07542
 20
100.613648
 30
0
 10
135.159645
 20
102.712823
 30
0
 10
136.535295
 20
104.0523
 30
0
  0
SPLINE
  5
7E
100
AcDbEntity
  8
0
  6
ByLayer
 62
    7
370
   -1
100
AcDbSpline
210
0
220
0
230
0
 70
    8
 71
    3
 72
    8
 73
    4
 74
    0
 42
1e-07
 43
1e-07
 40
0
 40
0
 40
0
 40
0
 40
1
 40
1
 40
1
 40
1
 10
136.535295
 20
104.0523
 30
0
 10
139.364865
 20
106.80741
 30
0
 10
192.87135
 20
137.599995
 30
0
 10
194.829165
 20
137.599995
 30
0
  0
SPLINE
  5
7F
100
AcDbEntity
  8
0
  6
ByLayer
 62
    7
370
   -1
100
AcDbSpline
210
0
220
0
230
0
 70
    8
 71
    3
 72
    8
 73
    4
 74
    0
 42
1e-07
 43
1e-07
 40
0
 40
0
 40
0
 40
0
 40
1
 40
1
 40
1
 40
1
 10
194.829165
 20
137.599995
 30
0
 10
197.172735
 20
137.599995
 30
0
 10
253.35378
 20
105.967658
 30
0
 10
254.33259
 20
104.097015
 30
0
  0
SPLINE
  5
80
100
AcDbEntity
  8
0
  6
ByLayer
 62
    7
370
   -1
100
AcDbSpline
210
0
220
0
230
0
 70
    8
 71
    3
 72
    8
 73
    4
 74
    0
 42
1e-07
 43
1e-07
 40
0
 40
0
 40
0
 40
0
 40
1
 40
1
 40
1
 40
1
 10
254.33259
 20
104.097015
 30
0
 10
254.705857
 20
103.383653
 30
0
 10
255.143722
 20
87.781245
 30
0
 10
255.305625
 20
69.424988
 30
0
  0
SPLINE
  5
81
100
AcDbEntity
  8
0
  6
ByLayer
 62
    7
370
   -1
100
AcDbSpline
210
0
220
0
230
0
 70
    8
 71
    3
 72
    8
 73
    4
 74
    0
 42
1e-07
 43
1e-07
 40
0
 40
0
 40
0
 40
0
 40
1
 40
1
 40
1
 40
1
 10
255.305625
 20
69.424988
 30
0
 10
255.592485
 20
36.900375
 30
0
 10
255.559222
 20
36.01041800000002
 30
0
 10
253.999995
 20
34.49688
 30
0
  0
SPLINE
  5
82
100
AcDbEntity
  8
0
  6
ByLayer
 62
    7
370
   -1
100
AcDbSpline
210
0
220
0
230
0
 70
    8
 71
    3
 72
    8
 73
    4
 74
    0
 42
1e-07
 43
1e-07
 40
0
 40
0
 40
0
 40
0
 40
1
 40
1
 40
1
 40
1
 10
253.999995
 20
34.49688
 30
0
 10
252.584407
 20
33.122783
 30
0
 10
206.005088
 20
5.474678000000011
 30
0
 10
199.439722
 20
2.111520000000013
 30
0
  0
SPLINE
  5
83
100
AcDbEntity
  8
0
  6
ByLayer
 62
    7
370
   -1
100
AcDbSpline
210
0
220
0
230
0
 70
    8
 71
    3
 72
    8
 73
    4
 74
    0
 42
1e-07
 43
1e-07
 40
0
 40
0
 40
0
 40
0
 40
1
 40
1
 40
1
 40
1
 10
199.439722
 20
2.111520000000013
 30
0
 10
198.031567
 20
1.390185000000002
 30
0
 10
196.231567
 20
0.8024929999999983
 30
0
 10
195.439725
 20
0.8055449999999951
 30
0
  0
SPLINE
  5
84
100
AcDbEntity
  8
0
  6
ByLayer
 62
    7
370
   -1
100
AcDbSpline
210
0
220
0
230
0
 70
    8
 71
    3
 72
    8
 73
    4
 74
    0
 42
1e-07
 43
1e-07
 40
0
 40
0
 40
0
 40
0
 40
1
 40
1
 40
1
 40
1
 10
195.439725
 20
0.8055449999999951
 30
0
 10
194.647875
 20
0.8085450000000094
 30
0
 10
181.4247
 20
7.937543000000005
 30
0
 10
166.05489
 20
16.64766
 30
0
  0
LWPOLYLINE
  5
85
100
AcDbEntity
  8
0
  6
ByLayer
 62
    7
370
   -1
100
AcDbPolyline
 90
    1
 70
    1
 43
0
 10
85.075973
 20
37.599997
  0
LWPOLYLINE
  5
86
100
AcDbEntity
  8
0
  6
ByLayer
 62
    7
370
   -1
100
AcDbPolyline
 90
    1
 70
    1
 43
0
 10
166.05489
 20
16.64766
  0
SPLINE
  5
87
100
AcDbEntity
  8
0
  6
ByLayer
 62
    7
370
   -1
100
AcDbSpline
210
0
220
0
230
0
 70
    8
 71
    3
 72
    8
 73
    4
 74
    0
 42
1e-07
 43
1e-07
 40
0
 40
0
 40
0
 40
0
 40
1
 40
1
 40
1
 40
1
 10
214.799993
 20
103.304475
 30
0
 10
204.239993
 20
109.348965
 30
0
 10
195.059993
 20
114.116348
 30
0
 10
194.399993
 20
113.898668
 30
0
  0
SPLINE
  5
88
100
AcDbEntity
  8
0
  6
ByLayer
 62
    7
370
   -1
100
AcDbSpline
210
0
220
0
230
0
 70
    8
 71
    3
 72
    8
 73
    4
 74
    0
 42
1e-07
 43
1e-07
 40
0
 40
0
 40
0
 40
0
 40
1
 40
1
 40
1
 40
1
 10
194.399993
 20
113.898668
 30
0
 10
193.739993
 20
113.68098
 30
0
 10
184.829993
 20
108.582488
 30
0
 10
174.599993
 20
102.568673
 30
0
  0
LWPOLYLINE
  5
89
100
AcDbEntity
  8
0
  6
ByLayer
 62
    7
370
   -1
100
AcDbPolyline
 90
    5
 70
    0
 43
0
 10
217.41195
 20
36.82180499999998
 10
234.423923
 20
46.77042
 10
234.21195
 20
69.54246000000001
 10
233.999993
 20
92.3145
 10
214.799993
 20
103.304475
  0
SPLINE
  5
8A
100
AcDbEntity
  8
0
  6
ByLayer
 62
    7
370
   -1
100
AcDbSpline
210
0
220
0
230
0
 70
    8
 71
    3
 72
    8
 73
    4
 74
    0
 42
1e-07
 43
1e-07
 40
0
 40
0
 40
0
 40
0
 40
1
 40
1
 40
1
 40
1
 10
197.985225
 20
25.46686499999998
 30
0
 10
199.313348
 20
26.24034
 30
0
 10
208.055378
 20
31.35005999999998
 30
0
 10
217.41195
 20
36.82180499999998
 30
0
  0
LWPOLYLINE
  5
8B
100
AcDbEntity
  8
0
  6
ByLayer
 62
    7
370
   -1
100
AcDbPolyline
 90
    7
 70
    0
 43
0
 10
174.599993
 20
102.568673
 10
155.999993
 20
91.63445299999999
 10
155.999993
 20
69.05874799999999
 10
155.999993
 20
46.483035
 10
175.785225
 20
35.27178800000002
 10
195.570458
 20
24.06053299999999
 10
197.985225
 20
25.46686499999998
  0
SPLINE
  5
8C
100
AcDbEntity
  8
0
  6
ByLayer
 62
    7
370
   -1
100
AcDbSpline
210
0
220
0
230
0
 70
    8
 71
    3
 72
    8
 73
    4
 74
    0
 42
1e-07
 43
1e-07
 40
0
 40
0
 40
0
 40
0
 40
1
 40
1
 40
1
 40
1
 10
98.41957500000001
 20
134.760375
 30
0
 10
83.25033000000002
 20
143.365073
 30
0
 10
70.11033600000002
 20
151.133798
 30
0
 10
69.219572
 20
152.02419
 30
0
  0
SPLINE
  5
8D
100
AcDbEntity
  8
0
  6
ByLayer
 62
    7
370
   -1
100
AcDbSpline
210
0
220
0
230
0
 70
    8
 71
    3
 72
    8
 73
    4
 74
    0
 42
1e-07
 43
1e-07
 40
0
 40
0
 40
0
 40
0
 40
1
 40
1
 40
1
 40
1
 10
69.219572
 20
152.02419
 30
0
 10
67.652501
 20
153.590595
 30
0
 10
67.59269799999998
 20
154.730805
 30
0
 10
67.37485100000001
 20
187.196388
 30
0
  0
SPLINE
  5
8E
100
AcDbEntity
  8
0
  6
ByLayer
 62
    7
370
   -1
100
AcDbSpline
210
0
220
0
230
0
 70
    8
 71
    3
 72
    8
 73
    4
 74
    0
 42
1e-07
 43
1e-07
 40
0
 40
0
 40
0
 40
0
 40
1
 40
1
 40
1
 40
1
 10
67.37485100000001
 20
187.196388
 30
0
 10
67.16395799999998
 20
218.625287
 30
0
 10
67.24092999999999
 20
220.839932
 30
0
 10
68.59057000000001
 20
222.174846
 30
0
  0
SPLINE
  5
8F
100
AcDbEntity
  8
0
  6
ByLayer
 62
    7
370
   -1
100
AcDbSpline
210
0
220
0
230
0
 70
    8
 71
    3
 72
    8
 73
    4
 74
    0
 42
1e-07
 43
1e-07
 40
0
 40
0
 40
0
 40
0
 40
1
 40
1
 40
1
 40
1
 10
68.59057000000001
 20
222.174846
 30
0
 10
69.383048
 20
222.958678
 30
0
 10
82.54847999999998
 20
230.93217
 30
0
 10
97.84708499999999
 20
239.893721
 30
0
  0
SPLINE
  5
90
100
AcDbEntity
  8
0
  6
ByLayer
 62
    7
370
   -1
100
AcDbSpline
210
0
220
0
230
0
 70
    8
 71
    3
 72
    8
 73
    4
 74
    0
 42
1e-07
 43
1e-07
 40
0
 40
0
 40
0
 40
0
 40
1
 40
1
 40
1
 40
1
 10
97.84708499999999
 20
239.893721
 30
0
 10
120.65844
 20
253.256057
 30
0
 10
126.052883
 20
256.107923
 30
0
 10
127.831365
 20
255.745426
 30
0
  0
SPLINE
  5
91
100
AcDbEntity
  8
0
  6
ByLayer
 62
    7
370
   -1
100
AcDbSpline
210
0
220
0
230
0
 70
    8
 71
    3
 72
    8
 73
    4
 74
    0
 42
1e-07
 43
1e-07
 40
0
 40
0
 40
0
 40
0
 40
1
 40
1
 40
1
 40
1
 10
127.831365
 20
255.745426
 30
0
 10
130.21974
 20
255.258617
 30
0
 10
182.595045
 20
225.790698
 30
0
 10
185.26725
 20
223.430271
 30
0
  0
SPLINE
  5
92
100
AcDbEntity
  8
0
  6
ByLayer
 62
    7
370
   -1
100
AcDbSpline
210
0
220
0
230
0
 70
    8
 71
    3
 72
    8
 73
    4
 74
    0
 42
1e-07
 43
1e-07
 40
0
 40
0
 40
0
 40
0
 40
1
 40
1
 40
1
 40
1
 10
185.26725
 20
223.430271
 30
0
 10
186.81816
 20
222.060311
 30
0
 10
186.971528
 20
220.81463
 30
0
 10
187.465148
 20
205.57877
 30
0
  0
SPLINE
  5
93
100
AcDbEntity
  8
0
  6
ByLayer
 62
    7
370
   -1
100
AcDbSpline
210
0
220
0
230
0
 70
    8
 71
    3
 72
    8
 73
    4
 74
    0
 42
1e-07
 43
1e-07
 40
0
 40
0
 40
0
 40
0
 40
1
 40
1
 40
1
 40
1
 10
187.465148
 20
205.57877
 30
0
 10
188.285888
 20
180.245933
 30
0
 10
188.125763
 20
156.351315
 30
0
 10
187.120478
 20
154.14495
 30
0
  0
SPLINE
  5
94
100
AcDbEntity
  8
0
  6
ByLayer
 62
    7
370
   -1
100
AcDbSpline
210
0
220
0
230
0
 70
    8
 71
    3
 72
    8
 73
    4
 74
    0
 42
1e-07
 43
1e-07
 40
0
 40
0
 40
0
 40
0
 40
1
 40
1
 40
1
 40
1
 10
187.120478
 20
154.14495
 30
0
 10
186.024413
 20
151.73934
 30
0
 10
132.039038
 20
119.765693
 30
0
 10
128.414468
 20
119.37543
 30
0
  0
SPLINE
  5
95
100
AcDbEntity
  8
0
  6
ByLayer
 62
    7
370
   -1
100
AcDbSpline
210
0
220
0
230
0
 70
    8
 71
    3
 72
    8
 73
    4
 74
    0
 42
1e-07
 43
1e-07
 40
0
 40
0
 40
0
 40
0
 40
1
 40
1
 40
1
 40
1
 10
128.414468
 20
119.37543
 30
0
 10
126.495375
 20
119.168798
 30
0
 10
120.341355
 20
122.3253
 30
0
 10
98.41957500000001
 20
134.760375
 30
0
  0
LWPOLYLINE
  5
96
100
AcDbEntity
  8
0
  6
ByLayer
 62
    7
370
   -1
100
AcDbPolyline
 90
    1
 70
    1
 43
0
 10
217.41195
 20
36.82180499999998
  0
SPLINE
  5
97
100
AcDbEntity
  8
0
  6
ByLayer
 62
    7
370
   -1
100
AcDbSpline
210
0
220
0
230
0
 70
    8
 71
    3
 72
    8
 73
    4
 74
    0
 42
1e-07
 43
1e-07
 40
0
 40
0
 40
0
 40
0
 40
1
 40
1
 40
1
 40
1
 10
146.6316
 20
153.272273
 30
0
 10
156.844223
 20
159.25203
 30
0
 10
165.61761
 20
164.56203
 30
0
 10
166.12803
 20
165.072278
 30
0
  0
SPLINE
  5
98
100
AcDbEntity
  8
0
  6
ByLayer
 62
    7
370
   -1
100
AcDbSpline
210
0
220
0
230
0
 70
    8
 71
    3
 72
    8
 73
    4
 74
    0
 42
1e-07
 43
1e-07
 40
0
 40
0
 40
0
 40
0
 40
1
 40
1
 40
1
 40
1
 10
166.12803
 20
165.072278
 30
0
 10
166.813402
 20
165.757418
 30
0
 10
166.917998
 20
171.83712
 30
0
 10
166.528028
 20
188.323849
 30
0
  0
LWPOLYLINE
  5
99
100
AcDbEntity
  8
0
  6
ByLayer
 62
    7
370
   -1
100
AcDbPolyline
 90
    1
 70
    1
 43
0
 10
98.41957500000001
 20
134.760375
  0
SPLINE
  5
9A
100
AcDbEntity
  8
0
  6
ByLayer
 62
    7
370
   -1
100
AcDbSpline
210
0
220
0
230
0
 70
    8
 71
    3
 72
    8
 73
    4
 74
    0
 42
1e-07
 43
1e-07
 40
0
 40
0
 40
0
 40
0
 40
1
 40
1
 40
1
 40
1
 10
94.18767800000001
 20
161.35788
 30
0
 10
102.64524
 20
156.445042
 30
0
 10
127.544715
 20
142.421708
 30
0
 10
127.831605
 20
142.409693
 30
0
  0
SPLINE
  5
9B
100
AcDbEntity
  8
0
  6
ByLayer
 62
    7
370
   -1
100
AcDbSpline
210
0
220
0
230
0
 70
    8
 71
    3
 72
    8
 73
    4
 74
    0
 42
1e-07
 43
1e-07
 40
0
 40
0
 40
0
 40
0
 40
1
 40
1
 40
1
 40
1
 10
127.831605
 20
142.409693
 30
0
 10
127.958978
 20
142.404443
 30
0
 10
136.418978
 20
147.292523
 30
0
 10
146.6316
 20
153.272273
 30
0
  0
LWPOLYLINE
  5
9C
100
AcDbEntity
  8
0
  6
ByLayer
 62
    7
370
   -1
100
AcDbPolyline
 90
    9
 70
    0
 43
0
 10
166.528028
 20
188.323849
 10
165.999998
 20
210.647705
 10
146.561835
 20
221.688941
 10
127.123665
 20
232.730177
 10
107.761838
 20
221.353542
 10
88.39999499999999
 20
209.976908
 10
88.18767800000001
 20
187.471703
 10
87.975368
 20
164.966498
 10
94.18767800000001
 20
161.35788
  0
LWPOLYLINE
  5
9D
100
AcDbEntity
  8
0
  6
ByLayer
 62
    7
370
   -1
100
AcDbPolyline
 90
    1
 70
    1
 43
0
 10
146.6316
 20
153.272273
  0
ENDBLK
  5
5B
330
59
100
AcDbEntity
  8
0
100
AcDbBlockEnd
  0
ENDSEC
  0
SECTION
  2
ENTITIES
  0
HATCH
  5
9E
100
AcDbEntity
  8
Vector
  6
ByLayer
 62
  256
370
   -1
100
AcDbHatch
 10
0
 20
0
 30
0
210
0
220
0
230
1
  2
SOLID
 70
    1
 71
    0
 91
    1
 92
    0
 93
    6
 72
    1
 10
92.50000000000003
 20
69.5
 11
95.50000000000003
 21
74.5
 72
    1
 10
95.50000000000003
 20
74.5
 11
100.5
 21
74.5
 72
    1
 10
100.5
 20
74.5
 11
103.5
 21
69.5
 72
    1
 10
103.5
 20
69.5
 11
100.5
 21
64.5
 72
    1
 10
100.5
 20
64.5
 11
95.50000000000003
 21
64.5
 72
    1
 10
95.50000000000003
 20
64.5
 11
92.50000000000003
 21
69.5
 97
    0
 75
    0
 76
    1
 98
    0
  0
HATCH
  5
9F
100
AcDbEntity
  8
Vector
  6
ByLayer
 62
  256
370
   -1
100
AcDbHatch
 10
0
 20
0
 30
0
210
0
220
0
230
1
  2
SOLID
 70
    1
 71
    0
 91
    1
 92
    0
 93
    6
 72
    1
 10
103.5
 20
62.5
 11
106.5
 21
67.5
 72
    1
 10
106.5
 20
67.5
 11
111.5
 21
67.5
 72
    1
 10
111.5
 20
67.5
 11
114.5
 21
62.5
 72
    1
 10
114.5
 20
62.5
 11
111.5
 21
57.5
 72
    1
 10
111.5
 20
57.5
 11
106.5
 21
57.5
 72
    1
 10
106.5
 20
57.5
 11
103.5
 21
62.5
 97
    0
 75
    0
 76
    1
 98
    0
  0
HATCH
  5
A0
100
AcDbEntity
  8
Vector
  6
ByLayer
 62
  256
370
   -1
100
AcDbHatch
 10
0
 20
0
 30
0
210
0
220
0
230
1
  2
SOLID
 70
    1
 71
    0
 91
    1
 92
    0
 93
    6
 72
    1
 10
103.5
 20
76.5
 11
106.5
 21
81.5
 72
    1
 10
106.5
 20
81.5
 11
111.5
 21
81.5
 72
    1
 10
111.5
 20
81.5
 11
114.5
 21
76.5
 72
    1
 10
114.5
 20
76.5
 11
111.5
 21
71.5
 72
    1
 10
111.5
 20
71.5
 11
106.5
 21
71.5
 72
    1
 10
106.5
 20
71.5
 11
103.5
 21
76.5
 97
    0
 75
    0
 76
    1
 98
    0
  0
LWPOLYLINE
  5
A1
100
AcDbEntity
  8
0
  6
CONTINUOUS
 62
   30
420
16159262
370
   -1
100
AcDbPolyline
 90
    4
 70
    1
 43
0
 10
0
 20
0
 10
394
 20
0
 10
394
 20
394
 10
0
 20
394
  0
LWPOLYLINE
  5
A2
100
AcDbEntity
  8
0
  6
CONTINUOUS
 62
   30
420
16159262
370
   -1
100
AcDbPolyline
 90
    4
 70
    1
 43
0
 10
4.999999999999998
 20
4.999999999999999
 10
389
 20
4.999999999999999
 10
389
 20
389
 10
5
 20
389
  0
HATCH
  5
A3
100
AcDbEntity
  8
0
  6
CONTINUOUS
 62
   30
420
16159262
370
   -1
100
AcDbHatch
 10
0
 20
0
 30
0
210
0
220
0
230
1
  2
SOLID
 70
    1
 71
    0
 91
    2
 92
    0
 93
    4
 72
    1
 10
394
 20
394
 11
2e-16
 21
394
 72
    1
 10
2e-16
 20
394
 11
2e-16
 21
0
 72
    1
 10
2e-16
 20
0
 11
394
 21
0
 72
    1
 10
394
 20
0
 11
394
 21
394
 97
    0
 92
    0
 93
    4
 72
    1
 10
5
 20
389
 11
389
 21
389
 72
    1
 10
389
 20
389
 11
389
 21
4.999999999999971
 72
    1
 10
389
 20
4.999999999999971
 11
4.999999999999998
 21
5.000000000000028
 72
    1
 10
4.999999999999998
 20
5.000000000000028
 11
5
 21
389
 97
    0
 75
    0
 76
    1
 98
    0
  0
DIMENSION
  5
A4
100
AcDbEntity
  8
0
  6
CONTINUOUS
 62
  256
370
   -1
100
AcDbDimension
  2
*D1
 10
389
 20
-24.28672006660412
 30
0
 11
197
 21
-24.28672006660412
 31
0
 70
   32
 71
    5
  3
Standard
 53
0
210
0
220
0
230
1
100
AcDbAlignedDimension
 13
4.999999999999998
 23
4.999999999999999
 33
0
 14
389
 24
4.999999999999999
 34
0
100
AcDbRotatedDimension
  0
DIMENSION
  5
A5
100
AcDbEntity
  8
0
  6
CONTINUOUS
 62
  256
370
   -1
100
AcDbDimension
  2
*D2
 10
-22.90666348504884
 20
5.000000000000007
 30
0
 11
-22.90666348504883
 21
197
 31
0
 70
   32
 71
    5
  3
Standard
 53
0
210
0
220
0
230
1
100
AcDbAlignedDimension
 13
5
 23
389
 33
0
 14
4.999999999999998
 24
4.999999999999999
 34
0
 50
90
100
AcDbRotatedDimension
  0
LWPOLYLINE
  5
A6
100
AcDbEntity
  8
Guidelines
  6
ByLayer
 62
  256
370
   -1
100
AcDbPolyline
 90
    4
 70
    1
 43
0
 10
5
 20
5
 10
65
 20
5
 10
65
 20
131
 10
5
 20
131
  0
LWPOLYLINE
  5
A7
100
AcDbEntity
  8
Guidelines
  6
ByLayer
 62
  256
370
   -1
100
AcDbPolyline
 90
    4
 70
    1
 43
0
 10
62
 20
128
 10
8
 20
128
 10
8
 20
8
 10
62
 20
8
  0
LWPOLYLINE
  5
A8
100
AcDbEntity
  8
Guidelines
  6
ByLayer
 62
  256
370
   -1
100
AcDbPolyline
 90
    4
 70
    1
 43
0
 10
5
 20
5
 10
17
 20
5
 10
17
 20
8
 10
5
 20
8
  0
LWPOLYLINE
  5
A9
100
AcDbEntity
  8
Guidelines
  6
ByLayer
 62
  256
370
   -1
100
AcDbPolyline
 90
    4
 70
    1
 43
0
 10
17
 20
8
 10
29
 20
8
 10
29
 20
5
 10
17
 20
5
  0
LWPOLYLINE
  5
AA
100
AcDbEntity
  8
Guidelines
  6
ByLayer
 62
  256
370
   -1
100
AcDbPolyline
 90
    4
 70
    1
 43
0
 10
29
 20
5
 10
41
 20
5
 10
41
 20
8
 10
29
 20
8
  0
LWPOLYLINE
  5
AB
100
AcDbEntity
  8
Guidelines
  6
ByLayer
 62
  256
370
   -1
100
AcDbPolyline
 90
    4
 70
    1
 43
0
 10
41
 20
8
 10
53
 20
8
 10
53
 20
5
 10
41
 20
5
  0
LWPOLYLINE
  5
AC
100
AcDbEntity
  8
Guidelines
  6
ByLayer
 62
  256
370
   -1
100
AcDbPolyline
 90
    4
 70
    1
 43
0
 10
53
 20
5
 10
65
 20
5
 10
65
 20
8
 10
53
 20
8
  0
LWPOLYLINE
  5
AD
100
AcDbEntity
  8
Guidelines
  6
ByLayer
 62
  256
370
   -1
100
AcDbPolyline
 90
    4
 70
    1
 43
0
 10
65
 20
8
 10
62
 20
8
 10
62
 20
32
 10
65
 20
32
  0
LWPOLYLINE
  5
AE
100
AcDbEntity
  8
Guidelines
  6
ByLayer
 62
  256
370
   -1
100
AcDbPolyline
 90
    4
 70
    1
 43
0
 10
62
 20
32
 10
65
 20
32
 10
65
 20
56
 10
62
 20
56
  0
LWPOLYLINE
  5
AF
100
AcDbEntity
  8
Guidelines
  6
ByLayer
 62
  256
370
   -1
100
AcDbPolyline
 90
    4
 70
    1
 43
0
 10
65
 20
56
 10
62
 20
56
 10
62
 20
80
 10
65
 20
80
  0
LWPOLYLINE
  5
B0
100
AcDbEntity
  8
Guidelines
  6
ByLayer
 62
  256
370
   -1
100
AcDbPolyline
 90
    4
 70
    1
 43
0
 10
62
 20
80
 10
65
 20
80
 10
65
 20
104
 10
62
 20
104
  0
LWPOLYLINE
  5
B1
100
AcDbEntity
  8
Guidelines
  6
ByLayer
 62
  256
370
   -1
100
AcDbPolyline
 90
    4
 70
    1
 43
0
 10
65
 20
104
 10
62
 20
104
 10
62
 20
128
 10
65
 20
128
  0
LWPOLYLINE
  5
B2
100
AcDbEntity
  8
Guidelines
  6
ByLayer
 62
  256
370
   -1
100
AcDbPolyline
 90
    4
 70
    1
 43
0
 10
65
 20
128
 10
53
 20
128
 10
53
 20
131
 10
65
 20
131
  0
LWPOLYLINE
  5
B3
100
AcDbEntity
  8
Guidelines
  6
ByLayer
 62
  256
370
   -1
100
AcDbPolyline
 90
    4
 70
    1
 43
0
 10
53
 20
131
 10
41
 20
131
 10
41
 20
128
 10
53
 20
128
  0
LWPOLYLINE
  5
B4
100
AcDbEntity
  8
Guidelines
  6
ByLayer
 62
  256
370
   -1
100
AcDbPolyline
 90
    4
 70
    1
 43
0
 10
41
 20
128
 10
29
 20
128
 10
29
 20
131
 10
41
 20
131
  0
LWPOLYLINE
  5
B5
100
AcDbEntity
  8
Guidelines
  6
ByLayer
 62
  256
370
   -1
100
AcDbPolyline
 90
    4
 70
    1
 43
0
 10
29
 20
131
 10
17
 20
131
 10
17
 20
128
 10
29
 20
128
  0
LWPOLYLINE
  5
B6
100
AcDbEntity
  8
Guidelines
  6
ByLayer
 62
  256
370
   -1
100
AcDbPolyline
 90
    4
 70
    1
 43
0
 10
17
 20
128
 10
5
 20
128
 10
5
 20
131
 10
17
 20
131
  0
LWPOLYLINE
  5
B7
100
AcDbEntity
  8
Guidelines
  6
ByLayer
 62
  256
370
   -1
100
AcDbPolyline
 90
    4
 70
    1
 43
0
 10
5
 20
128
 10
8
 20
128
 10
8
 20
104
 10
5
 20
104
  0
LWPOLYLINE
  5
B8
100
AcDbEntity
  8
Guidelines
  6
ByLayer
 62
  256
370
   -1
100
AcDbPolyline
 90
    4
 70
    1
 43
0
 10
8
 20
104
 10
5
 20
104
 10
5
 20
80
 10
8
 20
80
  0
LWPOLYLINE
  5
B9
100
AcDbEntity
  8
Guidelines
  6
ByLayer
 62
  256
370
   -1
100
AcDbPolyline
 90
    4
 70
    1
 43
0
 10
5
 20
80
 10
8
 20
80
 10
8
 20
56
 10
5
 20
56
  0
LWPOLYLINE
  5
BA
100
AcDbEntity
  8
Guidelines
  6
ByLayer
 62
  256
370
   -1
100
AcDbPolyline
 90
    4
 70
    1
 43
0
 10
8
 20
56
 10
5
 20
56
 10
5
 20
32
 10
8
 20
32
  0
LWPOLYLINE
  5
BB
100
AcDbEntity
  8
Guidelines
  6
ByLayer
 62
  256
370
   -1
100
AcDbPolyline
 90
    4
 70
    1
 43
0
 10
5
 20
32
 10
8
 20
32
 10
8
 20
8
 10
5
 20
8
  0
LINE
  5
BC
100
AcDbEntity
  8
Cut
  6
ByLayer
 62
  256
370
   -1
100
AcDbLine
 10
5
 20
128
 11
17
 21
128
  0
LINE
  5
BD
100
AcDbEntity
  8
Cut
  6
ByLayer
 62
  256
370
   -1
100
AcDbLine
 10
17
 20
128
 11
17
 21
131
  0
LINE
  5
BE
100
AcDbEntity
  8
Cut
  6
ByLayer
 62
  256
370
   -1
100
AcDbLine
 10
17
 20
131
 11
29
 21
131
  0
LINE
  5
BF
100
AcDbEntity
  8
Cut
  6
ByLayer
 62
  256
370
   -1
100
AcDbLine
 10
29
 20
131
 11
29
 21
128
  0
LINE
  5
C0
100
AcDbEntity
  8
Cut
  6
ByLayer
 62
  256
370
   -1
100
AcDbLine
 10
29
 20
128
 11
41
 21
128
  0
LINE
  5
C1
100
AcDbEntity
  8
Cut
  6
ByLayer
 62
  256
370
   -1
100
AcDbLine
 10
41
 20
128
 11
41
 21
131
  0
LINE
  5
C2
100
AcDbEntity
  8
Cut
  6
ByLayer
 62
  256
370
   -1
100
AcDbLine
 10
41
 20
131
 11
53
 21
131
  0
LINE
  5
C3
100
AcDbEntity
  8
Cut
  6
ByLayer
 62
  256
370
   -1
100
AcDbLine
 10
53
 20
131
 11
53
 21
128
  0
LINE
  5
C4
100
AcDbEntity
  8
Cut
  6
ByLayer
 62
  256
370
   -1
100
AcDbLine
 10
53
 20
128
 11
65
 21
128
  0
LINE
  5
C5
100
AcDbEntity
  8
Cut
  6
ByLayer
 62
  256
370
   -1
100
AcDbLine
 10
65
 20
128
 11
65
 21
104
  0
LINE
  5
C6
100
AcDbEntity
  8
Cut
  6
ByLayer
 62
  256
370
   -1
100
AcDbLine
 10
65
 20
104
 11
62
 21
104
  0
LINE
  5
C7
100
AcDbEntity
  8
Cut
  6
ByLayer
 62
  256
370
   -1
100
AcDbLine
 10
62
 20
104
 11
62
 21
80
  0
LINE
  5
C8
100
AcDbEntity
  8
Cut
  6
ByLayer
 62
  256
370
   -1
100
AcDbLine
 10
62
 20
80
 11
65
 21
80
  0
LINE
  5
C9
100
AcDbEntity
  8
Cut
  6
ByLayer
 62
  256
370
   -1
100
AcDbLine
 10
65
 20
80
 11
65
 21
56
  0
LINE
  5
CA
100
AcDbEntity
  8
Cut
  6
ByLayer
 62
  256
370
   -1
100
AcDbLine
 10
65
 20
56
 11
62
 21
56
  0
LINE
  5
CB
100
AcDbEntity
  8
Cut
  6
ByLayer
 62
  256
370
   -1
100
AcDbLine
 10
62
 20
56
 11
62
 21
32
  0
LINE
  5
CC
100
AcDbEntity
  8
Cut
  6
ByLayer
 62
  256
370
   -1
100
AcDbLine
 10
5
 20
128
 11
5
 21
104
  0
LINE
  5
CD
100
AcDbEntity
  8
Cut
  6
ByLayer
 62
  256
370
   -1
100
AcDbLine
 10
5
 20
104
 11
8
 21
104
  0
LINE
  5
CE
100
AcDbEntity
  8
Cut
  6
ByLayer
 62
  256
370
   -1
100
AcDbLine
 10
8
 20
104
 11
8
 21
80
  0
LINE
  5
CF
100
AcDbEntity
  8
Cut
  6
ByLayer
 62
  256
370
   -1
100
AcDbLine
 10
8
 20
80
 11
5
 21
80
  0
LINE
  5
D0
100
AcDbEntity
  8
Cut
  6
ByLayer
 62
  256
370
   -1
100
AcDbLine
 10
5
 20
80
 11
5
 21
56
  0
LINE
  5
D1
100
AcDbEntity
  8
Cut
  6
ByLayer
 62
  256
370
   -1
100
AcDbLine
 10
5
 20
56
 11
8
 21
56
  0
LINE
  5
D2
100
AcDbEntity
  8
Cut
  6
ByLayer
 62
  256
370
   -1
100
AcDbLine
 10
8
 20
56
 11
8
 21
32
  0
LINE
  5
D3
100
AcDbEntity
  8
Cut
  6
ByLayer
 62
  256
370
   -1
100
AcDbLine
 10
8
 20
32
 11
5
 21
32
  0
LINE
  5
D4
100
AcDbEntity
  8
Cut
  6
ByLayer
 62
  256
370
   -1
100
AcDbLine
 10
5
 20
32
 11
5
 21
8
  0
LINE
  5
D5
100
AcDbEntity
  8
Cut
  6
ByLayer
 62
  256
370
   -1
100
AcDbLine
 10
5
 20
8
 11
17
 21
8
  0
LINE
  5
D6
100
AcDbEntity
  8
Cut
  6
ByLayer
 62
  256
370
   -1
100
AcDbLine
 10
17
 20
8
 11
17
 21
5
  0
LINE
  5
D7
100
AcDbEntity
  8
Cut
  6
ByLayer
 62
  256
370
   -1
100
AcDbLine
 10
17
 20
5
 11
29
 21
5
  0
LINE
  5
D8
100
AcDbEntity
  8
Cut
  6
ByLayer
 62
  256
370
   -1
100
AcDbLine
 10
29
 20
5
 11
29
 21
8
  0
LINE
  5
D9
100
AcDbEntity
  8
Cut
  6
ByLayer
 62
  256
370
   -1
100
AcDbLine
 10
29
 20
8
 11
41
 21
8
  0
LINE
  5
DA
100
AcDbEntity
  8
Cut
  6
ByLayer
 62
  256
370
   -1
100
AcDbLine
 10
41
 20
8
 11
41
 21
5
  0
LINE
  5
DB
100
AcDbEntity
  8
Cut
  6
ByLayer
 62
  256
370
   -1
100
AcDbLine
 10
41
 20
5
 11
53
 21
5
  0
LINE
  5
DC
100
AcDbEntity
  8
Cut
  6
ByLayer
 62
  256
370
   -1
100
AcDbLine
 10
53
 20
5
 11
53
 21
8
  0
LINE
  5
DD
100
AcDbEntity
  8
Cut
  6
ByLayer
 62
  256
370
   -1
100
AcDbLine
 10
53
 20
8
 11
65
 21
8
  0
LINE
  5
DE
100
AcDbEntity
  8
Cut
  6
ByLayer
 62
  256
370
   -1
100
AcDbLine
 10
65
 20
8
 11
65
 21
32
  0
LINE
  5
DF
100
AcDbEntity
  8
Cut
  6
ByLayer
 62
  256
370
   -1
100
AcDbLine
 10
65
 20
32
 11
62
 21
32
  0
LWPOLYLINE
  5
E0
100
AcDbEntity
  8
Guidelines
  6
ByLayer
 62
  256
370
   -1
100
AcDbPolyline
 90
    4
 70
    1
 43
0
 10
75
 20
5
 10
135
 20
5
 10
135
 20
131
 10
75
 20
131
  0
LWPOLYLINE
  5
E1
100
AcDbEntity
  8
Guidelines
  6
ByLayer
 62
  256
370
   -1
100
AcDbPolyline
 90
    4
 70
    1
 43
0
 10
132
 20
128
 10
78
 20
128
 10
78
 20
8
 10
132
 20
8
  0
LWPOLYLINE
  5
E2
100
AcDbEntity
  8
Guidelines
  6
ByLayer
 62
  256
370
   -1
100
AcDbPolyline
 90
    4
 70
    1
 43
0
 10
75
 20
5
 10
87
 20
5
 10
87
 20
8
 10
75
 20
8
  0
LWPOLYLINE
  5
E3
100
AcDbEntity
  8
Guidelines
  6
ByLayer
 62
  256
370
   -1
100
AcDbPolyline
 90
    4
 70
    1
 43
0
 10
87
 20
8
 10
99
 20
8
 10
99
 20
5
 10
87
 20
5
  0
LWPOLYLINE
  5
E4
100
AcDbEntity
  8
Guidelines
  6
ByLayer
 62
  256
370
   -1
100
AcDbPolyline
 90
    4
 70
    1
 43
0
 10
99
 20
5
 10
111
 20
5
 10
111
 20
8
 10
99
 20
8
  0
LWPOLYLINE
  5
E5
100
AcDbEntity
  8
Guidelines
  6
ByLayer
 62
  256
370
   -1
100
AcDbPolyline
 90
    4
 70
    1
 43
0
 10
111
 20
8
 10
123
 20
8
 10
123
 20
5
 10
111
 20
5
  0
LWPOLYLINE
  5
E6
100
AcDbEntity
  8
Guidelines
  6
ByLayer
 62
  256
370
   -1
100
AcDbPolyline
 90
    4
 70
    1
 43
0
 10
123
 20
5
 10
135
 20
5
 10
135
 20
8
 10
123
 20
8
  0
LWPOLYLINE
  5
E7
100
AcDbEntity
  8
Guidelines
  6
ByLayer
 62
  256
370
   -1
100
AcDbPolyline
 90
    4
 70
    1
 43
0
 10
135
 20
8
 10
132
 20
8
 10
132
 20
32
 10
135
 20
32
  0
LWPOLYLINE
  5
E8
100
AcDbEntity
  8
Guidelines
  6
ByLayer
 62
  256
370
   -1
100
AcDbPolyline
 90
    4
 70
    1
 43
0
 10
132
 20
32
 10
135
 20
32
 10
135
 20
56
 10
132
 20
56
  0
LWPOLYLINE
  5
E9
100
AcDbEntity
  8
Guidelines
  6
ByLayer
 62
  256
370
   -1
100
AcDbPolyline
 90
    4
 70
    1
 43
0
 10
135
 20
56
 10
132
 20
56
 10
132
 20
80
 10
135
 20
80
  0
LWPOLYLINE
  5
EA
100
AcDbEntity
  8
Guidelines
  6
ByLayer
 62
  256
370
   -1
100
AcDbPolyline
 90
    4
 70
    1
 43
0
 10
132
 20
80
 10
135
 20
80
 10
135
 20
104
 10
132
 20
104
  0
LWPOLYLINE
  5
EB
100
AcDbEntity
  8
Guidelines
  6
ByLayer
 62
  256
370
   -1
100
AcDbPolyline
 90
    4
 70
    1
 43
0
 10
135
 20
104
 10
132
 20
104
 10
132
 20
128
 10
135
 20
128
  0
LWPOLYLINE
  5
EC
100
AcDbEntity
  8
Guidelines
  6
ByLayer
 62
  256
370
   -1
100
AcDbPolyline
 90
    4
 70
    1
 43
0
 10
135
 20
128
 10
123
 20
128
 10
123
 20
131
 10
135
 20
131
  0
LWPOLYLINE
  5
ED
100
AcDbEntity
  8
Guidelines
  6
ByLayer
 62
  256
370
   -1
100
AcDbPolyline
 90
    4
 70
    1
 43
0
 10
123
 20
131
 10
111
 20
131
 10
111
 20
128
 10
123
 20
128
  0
LWPOLYLINE
  5
EE
100
AcDbEntity
  8
Guidelines
  6
ByLayer
 62
  256
370
   -1
100
AcDbPolyline
 90
    4
 70
    1
 43
0
 10
111
 20
128
 10
99
 20
128
 10
99
 20
131
 10
111
 20
131
  0
LWPOLYLINE
  5
EF
100
AcDbEntity
  8
Guidelines
  6
ByLayer
 62
  256
370
   -1
100
AcDbPolyline
 90
    4
 70
    1
 43
0
 10
99
 20
131
 10
87
 20
131
 10
87
 20
128
 10
99
 20
128
  0
LWPOLYLINE
  5
F0
100
AcDbEntity
  8
Guidelines
  6
ByLayer
 62
  256
370
   -1
100
AcDbPolyline
 90
    4
 70
    1
 43
0
 10
87
 20
128
 10
75
 20
128
 10
75
 20
131
 10
87
 20
131
  0
LWPOLYLINE
  5
F1
100
AcDbEntity
  8
Guidelines
  6
ByLayer
 62
  256
370
   -1
100
AcDbPolyline
 90
    4
 70
    1
 43
0
 10
75
 20
128
 10
78
 20
128
 10
78
 20
104
 10
75
 20
104
  0
LWPOLYLINE
  5
F2
100
AcDbEntity
  8
Guidelines
  6
ByLayer
 62
  256
370
   -1
100
AcDbPolyline
 90
    4
 70
    1
 43
0
 10
78
 20
104
 10
75
 20
104
 10
75
 20
80
 10
78
 20
80
  0
LWPOLYLINE
  5
F3
100
AcDbEntity
  8
Guidelines
  6
ByLayer
 62
  256
370
   -1
100
AcDbPolyline
 90
    4
 70
    1
 43
0
 10
75
 20
80
 10
78
 20
80
 10
78
 20
56
 10
75
 20
56
  0
LWPOLYLINE
  5
F4
100
AcDbEntity
  8
Guidelines
  6
ByLayer
 62
  256
370
   -1
100
AcDbPolyline
 90
    4
 70
    1
 43
0
 10
78
 20
56
 10
75
 20
56
 10
75
 20
32
 10
78
 20
32
  0
LWPOLYLINE
  5
F5
100
AcDbEntity
  8
Guidelines
  6
ByLayer
 62
  256
370
   -1
100
AcDbPolyline
 90
    4
 70
    1
 43
0
 10
75
 20
32
 10
78
 20
32
 10
78
 20
8
 10
75
 20
8
  0
LINE
  5
F6
100
AcDbEntity
  8
Cut
  6
ByLayer
 62
  256
370
   -1
100
AcDbLine
 10
75
 20
128
 11
87
 21
128
  0
LINE
  5
F7
100
AcDbEntity
  8
Cut
  6
ByLayer
 62
  256
370
   -1
100
AcDbLine
 10
87
 20
128
 11
87
 21
131
  0
LINE
  5
F8
100
AcDbEntity
  8
Cut
  6
ByLayer
 62
  256
370
   -1
100
AcDbLine
 10
87
 20
131
 11
99
 21
131
  0
LINE
  5
F9
100
AcDbEntity
  8
Cut
  6
ByLayer
 62
  256
370
   -1
100
AcDbLine
 10
99
 20
131
 11
99
 21
128
  0
LINE
  5
FA
100
AcDbEntity
  8
Cut
  6
ByLayer
 62
  256
370
   -1
100
AcDbLine
 10
99
 20
128
 11
111
 21
128
  0
LINE
  5
FB
100
AcDbEntity
  8
Cut
  6
ByLayer
 62
  256
370
   -1
100
AcDbLine
 10
111
 20
128
 11
111
 21
131
  0
LINE
  5
FC
100
AcDbEntity
  8
Cut
  6
ByLayer
 62
  256
370
   -1
100
AcDbLine
 10
111
 20
131
 11
123
 21
131
  0
LINE
  5
FD
100
AcDbEntity
  8
Cut
  6
ByLayer
 62
  256
370
   -1
100
AcDbLine
 10
123
 20
131
 11
123
 21
128
  0
LINE
  5
FE
100
AcDbEntity
  8
Cut
  6
ByLayer
 62
  256
370
   -1
100
AcDbLine
 10
123
 20
128
 11
135
 21
128
  0
LINE
  5
FF
100
AcDbEntity
  8
Cut
  6
ByLayer
 62
  256
370
   -1
100
AcDbLine
 10
135
 20
128
 11
135
 21
104
  0
LINE
  5
100
100
AcDbEntity
  8
Cut
  6
ByLayer
 62
  256
370
   -1
100
AcDbLine
 10
135
 20
104
 11
132
 21
104
  0
LINE
  5
101
100
AcDbEntity
  8
Cut
  6
ByLayer
 62
  256
370
   -1
100
AcDbLine
 10
132
 20
104
 11
132
 21
80
  0
LINE
  5
102
100
AcDbEntity
  8
Cut
  6
ByLayer
 62
  256
370
   -1
100
AcDbLine
 10
132
 20
80
 11
135
 21
80
  0
LINE
  5
103
100
AcDbEntity
  8
Cut
  6
ByLayer
 62
  256
370
   -1
100
AcDbLine
 10
135
 20
80
 11
135
 21
56
  0
LINE
  5
104
100
AcDbEntity
  8
Cut
  6
ByLayer
 62
  256
370
   -1
100
AcDbLine
 10
135
 20
56
 11
132
 21
56
  0
LINE
  5
105
100
AcDbEntity
  8
Cut
  6
ByLayer
 62
  256
370
   -1
100
AcDbLine
 10
132
 20
56
 11
132
 21
32
  0
LINE
  5
106
100
AcDbEntity
  8
Cut
  6
ByLayer
 62
  256
370
   -1
100
AcDbLine
 10
75
 20
128
 11
75
 21
104
  0
LINE
  5
107
100
AcDbEntity
  8
Cut
  6
ByLayer
 62
  256
370
   -1
100
AcDbLine
 10
75
 20
104
 11
78
 21
104
  0
LINE
  5
108
100
AcDbEntity
  8
Cut
  6
ByLayer
 62
  256
370
   -1
100
AcDbLine
 10
78
 20
104
 11
78
 21
80
  0
LINE
  5
109
100
AcDbEntity
  8
Cut
  6
ByLayer
 62
  256
370
   -1
100
AcDbLine
 10
78
 20
80
 11
75
 21
80
  0
LINE
  5
10A
100
AcDbEntity
  8
Cut
  6
ByLayer
 62
  256
370
   -1
100
AcDbLine
 10
75
 20
80
 11
75
 21
56
  0
LINE
  5
10B
100
AcDbEntity
  8
Cut
  6
ByLayer
 62
  256
370
   -1
100
AcDbLine
 10
75
 20
56
 11
78
 21
56
  0
LINE
  5
10C
100
AcDbEntity
  8
Cut
  6
ByLayer
 62
  256
370
   -1
100
AcDbLine
 10
78
 20
56
 11
78
 21
32
  0
LINE
  5
10D
100
AcDbEntity
  8
Cut
  6
ByLayer
 62
  256
370
   -1
100
AcDbLine
 10
78
 20
32
 11
75
 21
32
  0
LINE
  5
10E
100
AcDbEntity
  8
Cut
  6
ByLayer
 62
  256
370
   -1
100
AcDbLine
 10
75
 20
32
 11
75
 21
8
  0
LINE
  5
10F
100
AcDbEntity
  8
Cut
  6
ByLayer
 62
  256
370
   -1
100
AcDbLine
 10
75
 20
8
 11
87
 21
8
  0
LINE
  5
110
100
AcDbEntity
  8
Cut
  6
ByLayer
 62
  256
370
   -1
100
AcDbLine
 10
87
 20
8
 11
87
 21
5
  0
LINE
  5
111
100
AcDbEntity
  8
Cut
  6
ByLayer
 62
  256
370
   -1
100
AcDbLine
 10
87
 20
5
 11
99
 21
5
  0
LINE
  5
112
100
AcDbEntity
  8
Cut
  6
ByLayer
 62
  256
370
   -1
100
AcDbLine
 10
99
 20
5
 11
99
 21
8
  0
LINE
  5
113
100
AcDbEntity
  8
Cut
  6
ByLayer
 62
  256
370
   -1
100
AcDbLine
 10
99
 20
8
 11
111
 21
8
  0
LINE
  5
114
100
AcDbEntity
  8
Cut
  6
ByLayer
 62
  256
370
   -1
100
AcDbLine
 10
111
 20
8
 11
111
 21
5
  0
LINE
  5
115
100
AcDbEntity
  8
Cut
  6
ByLayer
 62
  256
370
   -1
100
AcDbLine
 10
111
 20
5
 11
123
 21
5
  0
LINE
  5
116
100
AcDbEntity
  8
Cut
  6
ByLayer
 62
  256
370
   -1
100
AcDbLine
 10
123
 20
5
 11
123
 21
8
  0
LINE
  5
117
100
AcDbEntity
  8
Cut
  6
ByLayer
 62
  256
370
   -1
100
AcDbLine
 10
123
 20
8
 11
135
 21
8
  0
LINE
  5
118
100
AcDbEntity
  8
Cut
  6
ByLayer
 62
  256
370
   -1
100
AcDbLine
 10
135
 20
8
 11
135
 21
32
  0
LINE
  5
119
100
AcDbEntity
  8
Cut
  6
ByLayer
 62
  256
370
   -1
100
AcDbLine
 10
135
 20
32
 11
132
 21
32
  0
LWPOLYLINE
  5
11A
100
AcDbEntity
  8
Guidelines
  6
ByLayer
 62
  256
370
   -1
100
AcDbPolyline
 90
    5
 70
    1
 43
0
 10
145
 20
5
 10
205
 20
5
 10
205
 20
138
 10
145
 20
138
 10
145
 20
138
  0
LWPOLYLINE
  5
11B
100
AcDbEntity
  8
Guidelines
  6
ByLayer
 62
  256
370
   -1
100
AcDbPolyline
 90
    4
 70
    1
 43
0
 10
145
 20
5
 10
205
 20
5
 10
205
 20
15
 10
145
 20
15
  0
LWPOLYLINE
  5
11C
100
AcDbEntity
  8
Guidelines
  6
ByLayer
 62
  256
370
   -1
100
AcDbPolyline
 90
    4
 70
    1
 43
0
 10
145
 20
15
 10
205
 20
15
 10
205
 20
12
 10
145
 20
12
  0
LWPOLYLINE
  5
11D
100
AcDbEntity
  8
Guidelines
  6
ByLayer
 62
  256
370
   -1
100
AcDbPolyline
 90
    4
 70
    1
 43
0
 10
145
 20
15
 10
157
 20
15
 10
157
 20
12
 10
145
 20
12
  0
LWPOLYLINE
  5
11E
100
AcDbEntity
  8
Guidelines
  6
ByLayer
 62
  256
370
   -1
100
AcDbPolyline
 90
    4
 70
    1
 43
0
 10
169
 20
15
 10
181
 20
15
 10
181
 20
12
 10
169
 20
12
  0
LWPOLYLINE
  5
11F
100
AcDbEntity
  8
Guidelines
  6
ByLayer
 62
  256
370
   -1
100
AcDbPolyline
 90
    4
 70
    1
 43
0
 10
193
 20
15
 10
205
 20
15
 10
205
 20
12
 10
193
 20
12
  0
LWPOLYLINE
  5
120
100
AcDbEntity
  8
Guidelines
  6
ByLayer
 62
  256
370
   -1
100
AcDbPolyline
 90
    4
 70
    1
 43
0
 10
145
 20
5
 10
148
 20
5
 10
148
 20
138
 10
145
 20
138
  0
LWPOLYLINE
  5
121
100
AcDbEntity
  8
Guidelines
  6
ByLayer
 62
  256
370
   -1
100
AcDbPolyline
 90
    4
 70
    1
 43
0
 10
145
 20
138
 10
205
 20
138
 10
205
 20
135
 10
145
 20
135
  0
LWPOLYLINE
  5
122
100
AcDbEntity
  8
Guidelines
  6
ByLayer
 62
  256
370
   -1
100
AcDbPolyline
 90
    4
 70
    1
 43
0
 10
205
 20
138
 10
202
 20
138
 10
202
 20
5
 10
205
 20
5
  0
LWPOLYLINE
  5
123
100
AcDbEntity
  8
Guidelines
  6
ByLayer
 62
  256
370
   -1
100
AcDbPolyline
 90
    4
 70
    1
 43
0
 10
202
 20
15
 10
205
 20
15
 10
205
 20
39
 10
202
 20
39
  0
LWPOLYLINE
  5
124
100
AcDbEntity
  8
Guidelines
  6
ByLayer
 62
  256
370
   -1
100
AcDbPolyline
 90
    4
 70
    1
 43
0
 10
205
 20
39
 10
202
 20
39
 10
202
 20
63
 10
205
 20
63
  0
LWPOLYLINE
  5
125
100
AcDbEntity
  8
Guidelines
  6
ByLayer
 62
  256
370
   -1
100
AcDbPolyline
 90
    4
 70
    1
 43
0
 10
205
 20
87
 10
202
 20
87
 10
202
 20
63
 10
205
 20
63
  0
LWPOLYLINE
  5
126
100
AcDbEntity
  8
Guidelines
  6
ByLayer
 62
  256
370
   -1
100
AcDbPolyline
 90
    4
 70
    1
 43
0
 10
202
 20
87
 10
205
 20
87
 10
205
 20
111
 10
202
 20
111
  0
LWPOLYLINE
  5
127
100
AcDbEntity
  8
Guidelines
  6
ByLayer
 62
  256
370
   -1
100
AcDbPolyline
 90
    4
 70
    1
 43
0
 10
205
 20
135
 10
193
 20
135
 10
193
 20
138
 10
205
 20
138
  0
LWPOLYLINE
  5
128
100
AcDbEntity
  8
Guidelines
  6
ByLayer
 62
  256
370
   -1
100
AcDbPolyline
 90
    4
 70
    1
 43
0
 10
193
 20
138
 10
181
 20
138
 10
181
 20
135
 10
193
 20
135
  0
LWPOLYLINE
  5
129
100
AcDbEntity
  8
Guidelines
  6
ByLayer
 62
  256
370
   -1
100
AcDbPolyline
 90
    4
 70
    1
 43
0
 10
181
 20
135
 10
169
 20
135
 10
169
 20
138
 10
181
 20
138
  0
LWPOLYLINE
  5
12A
100
AcDbEntity
  8
Guidelines
  6
ByLayer
 62
  256
370
   -1
100
AcDbPolyline
 90
    4
 70
    1
 43
0
 10
169
 20
138
 10
157
 20
138
 10
157
 20
135
 10
169
 20
135
  0
LWPOLYLINE
  5
12B
100
AcDbEntity
  8
Guidelines
  6
ByLayer
 62
  256
370
   -1
100
AcDbPolyline
 90
    4
 70
    1
 43
0
 10
157
 20
135
 10
145
 20
135
 10
145
 20
138
 10
157
 20
138
  0
LWPOLYLINE
  5
12C
100
AcDbEntity
  8
Guidelines
  6
ByLayer
 62
  256
370
   -1
100
AcDbPolyline
 90
    4
 70
    1
 43
0
 10
148
 20
39
 10
145
 20
39
 10
145
 20
15
 10
148
 20
15
  0
LWPOLYLINE
  5
12D
100
AcDbEntity
  8
Guidelines
  6
ByLayer
 62
  256
370
   -1
100
AcDbPolyline
 90
    4
 70
    1
 43
0
 10
145
 20
39
 10
148
 20
39
 10
148
 20
63
 10
145
 20
63
  0
LWPOLYLINE
  5
12E
100
AcDbEntity
  8
Guidelines
  6
ByLayer
 62
  256
370
   -1
100
AcDbPolyline
 90
    4
 70
    1
 43
0
 10
148
 20
63
 10
145
 20
63
 10
145
 20
87
 10
148
 20
87
  0
LWPOLYLINE
  5
12F
100
AcDbEntity
  8
Guidelines
  6
ByLayer
 62
  256
370
   -1
100
AcDbPolyline
 90
    4
 70
    1
 43
0
 10
145
 20
87
 10
148
 20
87
 10
148
 20
111
 10
145
 20
111
  0
LWPOLYLINE
  5
130
100
AcDbEntity
  8
Guidelines
  6
ByLayer
 62
  256
370
   -1
100
AcDbPolyline
 90
    4
 70
    1
 43
0
 10
148
 20
111
 10
145
 20
111
 10
145
 20
135
 10
148
 20
135
  0
LINE
  5
131
100
AcDbEntity
  8
Cut
  6
ByLayer
 62
  256
370
   -1
100
AcDbLine
 10
145
 20
5
 11
145
 21
39
  0
LINE
  5
132
100
AcDbEntity
  8
Cut
  6
ByLayer
 62
  256
370
   -1
100
AcDbLine
 10
145
 20
39
 11
148
 21
39
  0
LINE
  5
133
100
AcDbEntity
  8
Cut
  6
ByLayer
 62
  256
370
   -1
100
AcDbLine
 10
148
 20
39
 11
148
 21
63
  0
LINE
  5
134
100
AcDbEntity
  8
Cut
  6
ByLayer
 62
  256
370
   -1
100
AcDbLine
 10
148
 20
63
 11
145
 21
63
  0
LINE
  5
135
100
AcDbEntity
  8
Cut
  6
ByLayer
 62
  256
370
   -1
100
AcDbLine
 10
145
 20
63
 11
145
 21
87
  0
LINE
  5
136
100
AcDbEntity
  8
Cut
  6
ByLayer
 62
  256
370
   -1
100
AcDbLine
 10
145
 20
87
 11
148
 21
87
  0
LINE
  5
137
100
AcDbEntity
  8
Cut
  6
ByLayer
 62
  256
370
   -1
100
AcDbLine
 10
148
 20
87
 11
148
 21
111
  0
LINE
  5
138
100
AcDbEntity
  8
Cut
  6
ByLayer
 62
  256
370
   -1
100
AcDbLine
 10
148
 20
111
 11
145
 21
111
  0
LINE
  5
139
100
AcDbEntity
  8
Cut
  6
ByLayer
 62
  256
370
   -1
100
AcDbLine
 10
145
 20
111
 11
145
 21
138
  0
LINE
  5
13A
100
AcDbEntity
  8
Cut
  6
ByLayer
 62
  256
370
   -1
100
AcDbLine
 10
145
 20
138
 11
157
 21
138
  0
LINE
  5
13B
100
AcDbEntity
  8
Cut
  6
ByLayer
 62
  256
370
   -1
100
AcDbLine
 10
157
 20
138
 11
157
 21
135
  0
LINE
  5
13C
100
AcDbEntity
  8
Cut
  6
ByLayer
 62
  256
370
   -1
100
AcDbLine
 10
157
 20
135
 11
169
 21
135
  0
LINE
  5
13D
100
AcDbEntity
  8
Cut
  6
ByLayer
 62
  256
370
   -1
100
AcDbLine
 10
169
 20
135
 11
169
 21
138
  0
LINE
  5
13E
100
AcDbEntity
  8
Cut
  6
ByLayer
 62
  256
370
   -1
100
AcDbLine
 10
169
 20
138
 11
181
 21
138
  0
LINE
  5
13F
100
AcDbEntity
  8
Cut
  6
ByLayer
 62
  256
370
   -1
100
AcDbLine
 10
181
 20
138
 11
181
 21
135
  0
LINE
  5
140
100
AcDbEntity
  8
Cut
  6
ByLayer
 62
  256
370
   -1
100
AcDbLine
 10
181
 20
135
 11
193
 21
135
  0
LINE
  5
141
100
AcDbEntity
  8
Cut
  6
ByLayer
 62
  256
370
   -1
100
AcDbLine
 10
193
 20
135
 11
193
 21
138
  0
LINE
  5
142
100
AcDbEntity
  8
Cut
  6
ByLayer
 62
  256
370
   -1
100
AcDbLine
 10
193
 20
138
 11
205
 21
138
  0
LINE
  5
143
100
AcDbEntity
  8
Cut
  6
ByLayer
 62
  256
370
   -1
100
AcDbLine
 10
205
 20
138
 11
205
 21
111
  0
LINE
  5
144
100
AcDbEntity
  8
Cut
  6
ByLayer
 62
  256
370
   -1
100
AcDbLine
 10
205
 20
111
 11
202
 21
111
  0
LINE
  5
145
100
AcDbEntity
  8
Cut
  6
ByLayer
 62
  256
370
   -1
100
AcDbLine
 10
202
 20
111
 11
202
 21
87
  0
LINE
  5
146
100
AcDbEntity
  8
Cut
  6
ByLayer
 62
  256
370
   -1
100
AcDbLine
 10
202
 20
87
 11
205
 21
87
  0
LINE
  5
147
100
AcDbEntity
  8
Cut
  6
ByLayer
 62
  256
370
   -1
100
AcDbLine
 10
205
 20
87
 11
205
 21
63
  0
LINE
  5
148
100
AcDbEntity
  8
Cut
  6
ByLayer
 62
  256
370
   -1
100
AcDbLine
 10
205
 20
63
 11
202
 21
63
  0
LINE
  5
149
100
AcDbEntity
  8
Cut
  6
ByLayer
 62
  256
370
   -1
100
AcDbLine
 10
202
 20
63
 11
202
 21
39
  0
LINE
  5
14A
100
AcDbEntity
  8
Cut
  6
ByLayer
 62
  256
370
   -1
100
AcDbLine
 10
202
 20
39
 11
205
 21
39
  0
LINE
  5
14B
100
AcDbEntity
  8
Cut
  6
ByLayer
 62
  256
370
   -1
100
AcDbLine
 10
205
 20
39
 11
205
 21
15
  0
LINE
  5
14C
100
AcDbEntity
  8
Cut
  6
ByLayer
 62
  256
370
   -1
100
AcDbLine
 10
205
 20
15
 11
205
 21
5
  0
LINE
  5
14D
100
AcDbEntity
  8
Cut
  6
ByLayer
 62
  256
370
   -1
100
AcDbLine
 10
205
 20
5
 11
145
 21
5
  0
LINE
  5
14E
100
AcDbEntity
  8
Cut
  6
ByLayer
 62
  256
370
   -1
100
AcDbLine
 10
157
 20
15
 11
157
 21
12
  0
LINE
  5
14F
100
AcDbEntity
  8
Cut
  6
ByLayer
 62
  256
370
   -1
100
AcDbLine
 10
157
 20
12
 11
169
 21
12
  0
LINE
  5
150
100
AcDbEntity
  8
Cut
  6
ByLayer
 62
  256
370
   -1
100
AcDbLine
 10
169
 20
12
 11
169
 21
15
  0
LINE
  5
151
100
AcDbEntity
  8
Cut
  6
ByLayer
 62
  256
370
   -1
100
AcDbLine
 10
169
 20
15
 11
157
 21
15
  0
LINE
  5
152
100
AcDbEntity
  8
Cut
  6
ByLayer
 62
  256
370
   -1
100
AcDbLine
 10
181
 20
12
 11
181
 21
15
  0
LINE
  5
153
100
AcDbEntity
  8
Cut
  6
ByLayer
 62
  256
370
   -1
100
AcDbLine
 10
181
 20
15
 11
193
 21
15
  0
LINE
  5
154
100
AcDbEntity
  8
Cut
  6
ByLayer
 62
  256
370
   -1
100
AcDbLine
 10
193
 20
15
 11
193
 21
12
  0
LINE
  5
155
100
AcDbEntity
  8
Cut
  6
ByLayer
 62
  256
370
   -1
100
AcDbLine
 10
193
 20
12
 11
181
 21
12
  0
MTEXT
  5
156
100
AcDbEntity
  8
Guide Text
  6
ByLayer
 62
  256
370
   -1
100
AcDbMText
 10
175
 20
9
 30
0
 40
3
 41
9.333333333333332
 71
    5
 72
    1
  1
FOOT
  7
standard
210
0
220
0
230
1
 50
0
 73
    2
 44
1
  0
MTEXT
  5
157
100
AcDbEntity
  8
Guide Text
  6
ByLayer
 62
  256
370
   -1
100
AcDbMText
 10
176
 20
77
 30
0
 40
5
 41
14.44444444444444
 71
    5
 72
    1
  1
LEFT
  7
standard
210
0
220
0
230
1
 50
0
 73
    2
 44
1
  0
LWPOLYLINE
  5
158
100
AcDbEntity
  8
Guidelines
  6
ByLayer
 62
  256
370
   -1
100
AcDbPolyline
 90
    5
 70
    1
 43
0
 10
215
 20
5
 10
275
 20
5
 10
275
 20
138
 10
215
 20
138
 10
215
 20
138
  0
LWPOLYLINE
  5
159
100
AcDbEntity
  8
Guidelines
  6
ByLayer
 62
  256
370
   -1
100
AcDbPolyline
 90
    4
 70
    1
 43
0
 10
215
 20
5
 10
275
 20
5
 10
275
 20
15
 10
215
 20
15
  0
LWPOLYLINE
  5
15A
100
AcDbEntity
  8
Guidelines
  6
ByLayer
 62
  256
370
   -1
100
AcDbPolyline
 90
    4
 70
    1
 43
0
 10
215
 20
15
 10
275
 20
15
 10
275
 20
12
 10
215
 20
12
  0
LWPOLYLINE
  5
15B
100
AcDbEntity
  8
Guidelines
  6
ByLayer
 62
  256
370
   -1
100
AcDbPolyline
 90
    4
 70
    1
 43
0
 10
215
 20
15
 10
227
 20
15
 10
227
 20
12
 10
215
 20
12
  0
LWPOLYLINE
  5
15C
100
AcDbEntity
  8
Guidelines
  6
ByLayer
 62
  256
370
   -1
100
AcDbPolyline
 90
    4
 70
    1
 43
0
 10
239
 20
15
 10
251
 20
15
 10
251
 20
12
 10
239
 20
12
  0
LWPOLYLINE
  5
15D
100
AcDbEntity
  8
Guidelines
  6
ByLayer
 62
  256
370
   -1
100
AcDbPolyline
 90
    4
 70
    1
 43
0
 10
263
 20
15
 10
275
 20
15
 10
275
 20
12
 10
263
 20
12
  0
LWPOLYLINE
  5
15E
100
AcDbEntity
  8
Guidelines
  6
ByLayer
 62
  256
370
   -1
100
AcDbPolyline
 90
    4
 70
    1
 43
0
 10
215
 20
5
 10
218
 20
5
 10
218
 20
138
 10
215
 20
138
  0
LWPOLYLINE
  5
15F
100
AcDbEntity
  8
Guidelines
  6
ByLayer
 62
  256
370
   -1
100
AcDbPolyline
 90
    4
 70
    1
 43
0
 10
215
 20
138
 10
275
 20
138
 10
275
 20
135
 10
215
 20
135
  0
LWPOLYLINE
  5
160
100
AcDbEntity
  8
Guidelines
  6
ByLayer
 62
  256
370
   -1
100
AcDbPolyline
 90
    4
 70
    1
 43
0
 10
275
 20
138
 10
272
 20
138
 10
272
 20
5
 10
275
 20
5
  0
LWPOLYLINE
  5
161
100
AcDbEntity
  8
Guidelines
  6
ByLayer
 62
  256
370
   -1
100
AcDbPolyline
 90
    4
 70
    1
 43
0
 10
272
 20
15
 10
275
 20
15
 10
275
 20
39
 10
272
 20
39
  0
LWPOLYLINE
  5
162
100
AcDbEntity
  8
Guidelines
  6
ByLayer
 62
  256
370
   -1
100
AcDbPolyline
 90
    4
 70
    1
 43
0
 10
275
 20
39
 10
272
 20
39
 10
272
 20
63
 10
275
 20
63
  0
LWPOLYLINE
  5
163
100
AcDbEntity
  8
Guidelines
  6
ByLayer
 62
  256
370
   -1
100
AcDbPolyline
 90
    4
 70
    1
 43
0
 10
275
 20
87
 10
272
 20
87
 10
272
 20
63
 10
275
 20
63
  0
LWPOLYLINE
  5
164
100
AcDbEntity
  8
Guidelines
  6
ByLayer
 62
  256
370
   -1
100
AcDbPolyline
 90
    4
 70
    1
 43
0
 10
272
 20
87
 10
275
 20
87
 10
275
 20
111
 10
272
 20
111
  0
LWPOLYLINE
  5
165
100
AcDbEntity
  8
Guidelines
  6
ByLayer
 62
  256
370
   -1
100
AcDbPolyline
 90
    4
 70
    1
 43
0
 10
275
 20
135
 10
263
 20
135
 10
263
 20
138
 10
275
 20
138
  0
LWPOLYLINE
  5
166
100
AcDbEntity
  8
Guidelines
  6
ByLayer
 62
  256
370
   -1
100
AcDbPolyline
 90
    4
 70
    1
 43
0
 10
263
 20
138
 10
251
 20
138
 10
251
 20
135
 10
263
 20
135
  0
LWPOLYLINE
  5
167
100
AcDbEntity
  8
Guidelines
  6
ByLayer
 62
  256
370
   -1
100
AcDbPolyline
 90
    4
 70
    1
 43
0
 10
251
 20
135
 10
239
 20
135
 10
239
 20
138
 10
251
 20
138
  0
LWPOLYLINE
  5
168
100
AcDbEntity
  8
Guidelines
  6
ByLayer
 62
  256
370
   -1
100
AcDbPolyline
 90
    4
 70
    1
 43
0
 10
239
 20
138
 10
227
 20
138
 10
227
 20
135
 10
239
 20
135
  0
LWPOLYLINE
  5
169
100
AcDbEntity
  8
Guidelines
  6
ByLayer
 62
  256
370
   -1
100
AcDbPolyline
 90
    4
 70
    1
 43
0
 10
227
 20
135
 10
215
 20
135
 10
215
 20
138
 10
227
 20
138
  0
LWPOLYLINE
  5
16A
100
AcDbEntity
  8
Guidelines
  6
ByLayer
 62
  256
370
   -1
100
AcDbPolyline
 90
    4
 70
    1
 43
0
 10
218
 20
39
 10
215
 20
39
 10
215
 20
15
 10
218
 20
15
  0
LWPOLYLINE
  5
16B
100
AcDbEntity
  8
Guidelines
  6
ByLayer
 62
  256
370
   -1
100
AcDbPolyline
 90
    4
 70
    1
 43
0
 10
215
 20
39
 10
218
 20
39
 10
218
 20
63
 10
215
 20
63
  0
LWPOLYLINE
  5
16C
100
AcDbEntity
  8
Guidelines
  6
ByLayer
 62
  256
370
   -1
100
AcDbPolyline
 90
    4
 70
    1
 43
0
 10
218
 20
63
 10
215
 20
63
 10
215
 20
87
 10
218
 20
87
  0
LWPOLYLINE
  5
16D
100
AcDbEntity
  8
Guidelines
  6
ByLayer
 62
  256
370
   -1
100
AcDbPolyline
 90
    4
 70
    1
 43
0
 10
215
 20
87
 10
218
 20
87
 10
218
 20
111
 10
215
 20
111
  0
LWPOLYLINE
  5
16E
100
AcDbEntity
  8
Guidelines
  6
ByLayer
 62
  256
370
   -1
100
AcDbPolyline
 90
    4
 70
    1
 43
0
 10
218
 20
111
 10
215
 20
111
 10
215
 20
135
 10
218
 20
135
  0
LINE
  5
16F
100
AcDbEntity
  8
Cut
  6
ByLayer
 62
  256
370
   -1
100
AcDbLine
 10
215
 20
5
 11
215
 21
39
  0
LINE
  5
170
100
AcDbEntity
  8
Cut
  6
ByLayer
 62
  256
370
   -1
100
AcDbLine
 10
215
 20
39
 11
218
 21
39
  0
LINE
  5
171
100
AcDbEntity
  8
Cut
  6
ByLayer
 62
  256
370
   -1
100
AcDbLine
 10
218
 20
39
 11
218
 21
63
  0
LINE
  5
172
100
AcDbEntity
  8
Cut
  6
ByLayer
 62
  256
370
   -1
100
AcDbLine
 10
218
 20
63
 11
215
 21
63
  0
LINE
  5
173
100
AcDbEntity
  8
Cut
  6
ByLayer
 62
  256
370
   -1
100
AcDbLine
 10
215
 20
63
 11
215
 21
87
  0
LINE
  5
174
100
AcDbEntity
  8
Cut
  6
ByLayer
 62
  256
370
   -1
100
AcDbLine
 10
215
 20
87
 11
218
 21
87
  0
LINE
  5
175
100
AcDbEntity
  8
Cut
  6
ByLayer
 62
  256
370
   -1
100
AcDbLine
 10
218
 20
87
 11
218
 21
111
  0
LINE
  5
176
100
AcDbEntity
  8
Cut
  6
ByLayer
 62
  256
370
   -1
100
AcDbLine
 10
218
 20
111
 11
215
 21
111
  0
LINE
  5
177
100
AcDbEntity
  8
Cut
  6
ByLayer
 62
  256
370
   -1
100
AcDbLine
 10
215
 20
111
 11
215
 21
138
  0
LINE
  5
178
100
AcDbEntity
  8
Cut
  6
ByLayer
 62
  256
370
   -1
100
AcDbLine
 10
215
 20
138
 11
227
 21
138
  0
LINE
  5
179
100
AcDbEntity
  8
Cut
  6
ByLayer
 62
  256
370
   -1
100
AcDbLine
 10
227
 20
138
 11
227
 21
135
  0
LINE
  5
17A
100
AcDbEntity
  8
Cut
  6
ByLayer
 62
  256
370
   -1
100
AcDbLine
 10
227
 20
135
 11
239
 21
135
  0
LINE
  5
17B
100
AcDbEntity
  8
Cut
  6
ByLayer
 62
  256
370
   -1
100
AcDbLine
 10
239
 20
135
 11
239
 21
138
  0
LINE
  5
17C
100
AcDbEntity
  8
Cut
  6
ByLayer
 62
  256
370
   -1
100
AcDbLine
 10
239
 20
138
 11
251
 21
138
  0
LINE
  5
17D
100
AcDbEntity
  8
Cut
  6
ByLayer
 62
  256
370
   -1
100
AcDbLine
 10
251
 20
138
 11
251
 21
135
  0
LINE
  5
17E
100
AcDbEntity
  8
Cut
  6
ByLayer
 62
  256
370
   -1
100
AcDbLine
 10
251
 20
135
 11
263
 21
135
  0
LINE
  5
17F
100
AcDbEntity
  8
Cut
  6
ByLayer
 62
  256
370
   -1
100
AcDbLine
 10
263
 20
135
 11
263
 21
138
  0
LINE
  5
180
100
AcDbEntity
  8
Cut
  6
ByLayer
 62
  256
370
   -1
100
AcDbLine
 10
263
 20
138
 11
275
 21
138
  0
LINE
  5
181
100
AcDbEntity
  8
Cut
  6
ByLayer
 62
  256
370
   -1
100
AcDbLine
 10
275
 20
138
 11
275
 21
111
  0
LINE
  5
182
100
AcDbEntity
  8
Cut
  6
ByLayer
 62
  256
370
   -1
100
AcDbLine
 10
275
 20
111
 11
272
 21
111
  0
LINE
  5
183
100
AcDbEntity
  8
Cut
  6
ByLayer
 62
  256
370
   -1
100
AcDbLine
 10
272
 20
111
 11
272
 21
87
  0
LINE
  5
184
100
AcDbEntity
  8
Cut
  6
ByLayer
 62
  256
370
   -1
100
AcDbLine
 10
272
 20
87
 11
275
 21
87
  0
LINE
  5
185
100
AcDbEntity
  8
Cut
  6
ByLayer
 62
  256
370
   -1
100
AcDbLine
 10
275
 20
87
 11
275
 21
63
  0
LINE
  5
186
100
AcDbEntity
  8
Cut
  6
ByLayer
 62
  256
370
   -1
100
AcDbLine
 10
275
 20
63
 11
272
 21
63
  0
LINE
  5
187
100
AcDbEntity
  8
Cut
  6
ByLayer
 62
  256
370
   -1
100
AcDbLine
 10
272
 20
63
 11
272
 21
39
  0
LINE
  5
188
100
AcDbEntity
  8
Cut
  6
ByLayer
 62
  256
370
   -1
100
AcDbLine
 10
272
 20
39
 11
275
 21
39
  0
LINE
  5
189
100
AcDbEntity
  8
Cut
  6
ByLayer
 62
  256
370
   -1
100
AcDbLine
 10
275
 20
39
 11
275
 21
15
  0
LINE
  5
18A
100
AcDbEntity
  8
Cut
  6
ByLayer
 62
  256
370
   -1
100
AcDbLine
 10
275
 20
15
 11
275
 21
5
  0
LINE
  5
18B
100
AcDbEntity
  8
Cut
  6
ByLayer
 62
  256
370
   -1
100
AcDbLine
 10
275
 20
5
 11
215
 21
5
  0
LINE
  5
18C
100
AcDbEntity
  8
Cut
  6
ByLayer
 62
  256
370
   -1
100
AcDbLine
 10
227
 20
15
 11
227
 21
12
  0
LINE
  5
18D
100
AcDbEntity
  8
Cut
  6
ByLayer
 62
  256
370
   -1
100
AcDbLine
 10
227
 20
12
 11
239
 21
12
  0
LINE
  5
18E
100
AcDbEntity
  8
Cut
  6
ByLayer
 62
  256
370
   -1
100
AcDbLine
 10
239
 20
12
 11
239
 21
15
  0
LINE
  5
18F
100
AcDbEntity
  8
Cut
  6
ByLayer
 62
  256
370
   -1
100
AcDbLine
 10
239
 20
15
 11
227
 21
15
  0
LINE
  5
190
100
AcDbEntity
  8
Cut
  6
ByLayer
 62
  256
370
   -1
100
AcDbLine
 10
251
 20
12
 11
251
 21
15
  0
LINE
  5
191
100
AcDbEntity
  8
Cut
  6
ByLayer
 62
  256
370
   -1
100
AcDbLine
 10
251
 20
15
 11
263
 21
15
  0
LINE
  5
192
100
AcDbEntity
  8
Cut
  6
ByLayer
 62
  256
370
   -1
100
AcDbLine
 10
263
 20
15
 11
263
 21
12
  0
LINE
  5
193
100
AcDbEntity
  8
Cut
  6
ByLayer
 62
  256
370
   -1
100
AcDbLine
 10
263
 20
12
 11
251
 21
12
  0
MTEXT
  5
194
100
AcDbEntity
  8
Guide Text
  6
ByLayer
 62
  256
370
   -1
100
AcDbMText
 10
245
 20
9
 30
0
 40
3
 41
9.333333333333332
 71
    5
 72
    1
  1
FOOT
  7
standard
210
0
220
0
230
1
 50
0
 73
    2
 44
1
  0
MTEXT
  5
195
100
AcDbEntity
  8
Guide Text
  6
ByLayer
 62
  256
370
   -1
100
AcDbMText
 10
246
 20
77
 30
0
 40
5
 41
17.77777777777778
 71
    5
 72
    1
  1
RIGHT
  7
standard
210
0
220
0
230
1
 50
0
 73
    2
 44
1
  0
LWPOLYLINE
  5
196
100
AcDbEntity
  8
Guidelines
  6
ByLayer
 62
  256
370
   -1
100
AcDbPolyline
 90
    4
 70
    1
 43
0
 10
8
 20
152
 10
128
 20
152
 10
128
 20
272
 10
8
 20
272
  0
LWPOLYLINE
  5
197
100
AcDbEntity
  8
Guidelines
  6
ByLayer
 62
  256
370
   -1
100
AcDbPolyline
 90
    4
 70
    1
 43
0
 10
13
 20
157
 10
123
 20
157
 10
123
 20
267
 10
13
 20
267
  0
LWPOLYLINE
  5
198
100
AcDbEntity
  8
Guidelines
  6
ByLayer
 62
  256
370
   -1
100
AcDbPolyline
 90
    4
 70
    1
 43
0
 10
5
 20
275
 10
131
 20
275
 10
131
 20
149
 10
5
 20
149
  0
LWPOLYLINE
  5
199
100
AcDbEntity
  8
Guidelines
  6
ByLayer
 62
  256
370
   -1
100
AcDbPolyline
 90
    4
 70
    1
 43
0
 10
128
 20
272
 10
131
 20
272
 10
131
 20
248
 10
128
 20
248
  0
LWPOLYLINE
  5
19A
100
AcDbEntity
  8
Guidelines
  6
ByLayer
 62
  256
370
   -1
100
AcDbPolyline
 90
    4
 70
    1
 43
0
 10
131
 20
248
 10
128
 20
248
 10
128
 20
224
 10
131
 20
224
  0
LWPOLYLINE
  5
19B
100
AcDbEntity
  8
Guidelines
  6
ByLayer
 62
  256
370
   -1
100
AcDbPolyline
 90
    4
 70
    1
 43
0
 10
128
 20
224
 10
131
 20
224
 10
131
 20
200
 10
128
 20
200
  0
LWPOLYLINE
  5
19C
100
AcDbEntity
  8
Guidelines
  6
ByLayer
 62
  256
370
   -1
100
AcDbPolyline
 90
    4
 70
    1
 43
0
 10
131
 20
200
 10
128
 20
200
 10
128
 20
176
 10
131
 20
176
  0
LWPOLYLINE
  5
19D
100
AcDbEntity
  8
Guidelines
  6
ByLayer
 62
  256
370
   -1
100
AcDbPolyline
 90
    4
 70
    1
 43
0
 10
128
 20
176
 10
131
 20
176
 10
131
 20
152
 10
128
 20
152
  0
LWPOLYLINE
  5
19E
100
AcDbEntity
  8
Guidelines
  6
ByLayer
 62
  256
370
   -1
100
AcDbPolyline
 90
    4
 70
    1
 43
0
 10
128
 20
152
 10
104
 20
152
 10
104
 20
149
 10
128
 20
149
  0
LWPOLYLINE
  5
19F
100
AcDbEntity
  8
Guidelines
  6
ByLayer
 62
  256
370
   -1
100
AcDbPolyline
 90
    4
 70
    1
 43
0
 10
104
 20
149
 10
80
 20
149
 10
80
 20
152
 10
104
 20
152
  0
LWPOLYLINE
  5
1A0
100
AcDbEntity
  8
Guidelines
  6
ByLayer
 62
  256
370
   -1
100
AcDbPolyline
 90
    4
 70
    1
 43
0
 10
80
 20
152
 10
56
 20
152
 10
56
 20
149
 10
80
 20
149
  0
LWPOLYLINE
  5
1A1
100
AcDbEntity
  8
Guidelines
  6
ByLayer
 62
  256
370
   -1
100
AcDbPolyline
 90
    4
 70
    1
 43
0
 10
56
 20
149
 10
32
 20
149
 10
32
 20
152
 10
56
 20
152
  0
LWPOLYLINE
  5
1A2
100
AcDbEntity
  8
Guidelines
  6
ByLayer
 62
  256
370
   -1
100
AcDbPolyline
 90
    4
 70
    1
 43
0
 10
32
 20
152
 10
8
 20
152
 10
8
 20
149
 10
32
 20
149
  0
LWPOLYLINE
  5
1A3
100
AcDbEntity
  8
Guidelines
  6
ByLayer
 62
  256
370
   -1
100
AcDbPolyline
 90
    4
 70
    1
 43
0
 10
8
 20
152
 10
5
 20
152
 10
5
 20
176
 10
8
 20
176
  0
LWPOLYLINE
  5
1A4
100
AcDbEntity
  8
Guidelines
  6
ByLayer
 62
  256
370
   -1
100
AcDbPolyline
 90
    4
 70
    1
 43
0
 10
5
 20
176
 10
8
 20
176
 10
8
 20
200
 10
5
 20
200
  0
LWPOLYLINE
  5
1A5
100
AcDbEntity
  8
Guidelines
  6
ByLayer
 62
  256
370
   -1
100
AcDbPolyline
 90
    4
 70
    1
 43
0
 10
8
 20
200
 10
5
 20
200
 10
5
 20
224
 10
8
 20
224
  0
LWPOLYLINE
  5
1A6
100
AcDbEntity
  8
Guidelines
  6
ByLayer
 62
  256
370
   -1
100
AcDbPolyline
 90
    4
 70
    1
 43
0
 10
5
 20
224
 10
8
 20
224
 10
8
 20
248
 10
5
 20
248
  0
LWPOLYLINE
  5
1A7
100
AcDbEntity
  8
Guidelines
  6
ByLayer
 62
  256
370
   -1
100
AcDbPolyline
 90
    4
 70
    1
 43
0
 10
8
 20
248
 10
5
 20
248
 10
5
 20
272
 10
8
 20
272
  0
LWPOLYLINE
  5
1A8
100
AcDbEntity
  8
Guidelines
  6
ByLayer
 62
  256
370
   -1
100
AcDbPolyline
 90
    4
 70
    1
 43
0
 10
8
 20
272
 10
32
 20
272
 10
32
 20
275
 10
8
 20
275
  0
LWPOLYLINE
  5
1A9
100
AcDbEntity
  8
Guidelines
  6
ByLayer
 62
  256
370
   -1
100
AcDbPolyline
 90
    4
 70
    1
 43
0
 10
32
 20
275
 10
56
 20
275
 10
56
 20
272
 10
32
 20
272
  0
LWPOLYLINE
  5
1AA
100
AcDbEntity
  8
Guidelines
  6
ByLayer
 62
  256
370
   -1
100
AcDbPolyline
 90
    4
 70
    1
 43
0
 10
56
 20
272
 10
80
 20
272
 10
80
 20
275
 10
56
 20
275
  0
LWPOLYLINE
  5
1AB
100
AcDbEntity
  8
Guidelines
  6
ByLayer
 62
  256
370
   -1
100
AcDbPolyline
 90
    4
 70
    1
 43
0
 10
80
 20
275
 10
104
 20
275
 10
104
 20
272
 10
80
 20
272
  0
LWPOLYLINE
  5
1AC
100
AcDbEntity
  8
Guidelines
  6
ByLayer
 62
  256
370
   -1
100
AcDbPolyline
 90
    4
 70
    1
 43
0
 10
128
 20
275
 10
128
 20
275
 10
128
 20
275
 10
128
 20
275
  0
LWPOLYLINE
  5
1AD
100
AcDbEntity
  8
Guidelines
  6
ByLayer
 62
  256
370
   -1
100
AcDbPolyline
 90
    4
 70
    1
 43
0
 10
104
 20
272
 10
128
 20
272
 10
128
 20
275
 10
104
 20
275
  0
LINE
  5
1AE
100
AcDbEntity
  8
Cut
  6
ByLayer
 62
  256
370
   -1
100
AcDbLine
 10
8
 20
272
 11
32
 21
272
  0
LINE
  5
1AF
100
AcDbEntity
  8
Cut
  6
ByLayer
 62
  256
370
   -1
100
AcDbLine
 10
32
 20
272
 11
32
 21
275
  0
LINE
  5
1B0
100
AcDbEntity
  8
Cut
  6
ByLayer
 62
  256
370
   -1
100
AcDbLine
 10
32
 20
275
 11
56
 21
275
  0
LINE
  5
1B1
100
AcDbEntity
  8
Cut
  6
ByLayer
 62
  256
370
   -1
100
AcDbLine
 10
56
 20
275
 11
56
 21
272
  0
LINE
  5
1B2
100
AcDbEntity
  8
Cut
  6
ByLayer
 62
  256
370
   -1
100
AcDbLine
 10
56
 20
272
 11
80
 21
272
  0
LINE
  5
1B3
100
AcDbEntity
  8
Cut
  6
ByLayer
 62
  256
370
   -1
100
AcDbLine
 10
80
 20
272
 11
80
 21
275
  0
LINE
  5
1B4
100
AcDbEntity
  8
Cut
  6
ByLayer
 62
  256
370
   -1
100
AcDbLine
 10
80
 20
275
 11
104
 21
275
  0
LINE
  5
1B5
100
AcDbEntity
  8
Cut
  6
ByLayer
 62
  256
370
   -1
100
AcDbLine
 10
104
 20
275
 11
104
 21
272
  0
LINE
  5
1B6
100
AcDbEntity
  8
Cut
  6
ByLayer
 62
  256
370
   -1
100
AcDbLine
 10
104
 20
272
 11
128
 21
272
  0
LINE
  5
1B7
100
AcDbEntity
  8
Cut
  6
ByLayer
 62
  256
370
   -1
100
AcDbLine
 10
128
 20
272
 11
128
 21
248
  0
LINE
  5
1B8
100
AcDbEntity
  8
Cut
  6
ByLayer
 62
  256
370
   -1
100
AcDbLine
 10
128
 20
248
 11
131
 21
248
  0
LINE
  5
1B9
100
AcDbEntity
  8
Cut
  6
ByLayer
 62
  256
370
   -1
100
AcDbLine
 10
131
 20
248
 11
131
 21
224
  0
LINE
  5
1BA
100
AcDbEntity
  8
Cut
  6
ByLayer
 62
  256
370
   -1
100
AcDbLine
 10
131
 20
224
 11
128
 21
224
  0
LINE
  5
1BB
100
AcDbEntity
  8
Cut
  6
ByLayer
 62
  256
370
   -1
100
AcDbLine
 10
128
 20
224
 11
128
 21
200
  0
LINE
  5
1BC
100
AcDbEntity
  8
Cut
  6
ByLayer
 62
  256
370
   -1
100
AcDbLine
 10
128
 20
200
 11
131
 21
200
  0
LINE
  5
1BD
100
AcDbEntity
  8
Cut
  6
ByLayer
 62
  256
370
   -1
100
AcDbLine
 10
131
 20
200
 11
131
 21
176
  0
LINE
  5
1BE
100
AcDbEntity
  8
Cut
  6
ByLayer
 62
  256
370
   -1
100
AcDbLine
 10
131
 20
176
 11
128
 21
176
  0
LINE
  5
1BF
100
AcDbEntity
  8
Cut
  6
ByLayer
 62
  256
370
   -1
100
AcDbLine
 10
128
 20
176
 11
128
 21
152
  0
LINE
  5
1C0
100
AcDbEntity
  8
Cut
  6
ByLayer
 62
  256
370
   -1
100
AcDbLine
 10
128
 20
152
 11
104
 21
152
  0
LINE
  5
1C1
100
AcDbEntity
  8
Cut
  6
ByLayer
 62
  256
370
   -1
100
AcDbLine
 10
104
 20
152
 11
104
 21
149
  0
LINE
  5
1C2
100
AcDbEntity
  8
Cut
  6
ByLayer
 62
  256
370
   -1
100
AcDbLine
 10
104
 20
149
 11
80
 21
149
  0
LINE
  5
1C3
100
AcDbEntity
  8
Cut
  6
ByLayer
 62
  256
370
   -1
100
AcDbLine
 10
80
 20
149
 11
80
 21
152
  0
LINE
  5
1C4
100
AcDbEntity
  8
Cut
  6
ByLayer
 62
  256
370
   -1
100
AcDbLine
 10
80
 20
152
 11
56
 21
152
  0
LINE
  5
1C5
100
AcDbEntity
  8
Cut
  6
ByLayer
 62
  256
370
   -1
100
AcDbLine
 10
56
 20
152
 11
56
 21
149
  0
LINE
  5
1C6
100
AcDbEntity
  8
Cut
  6
ByLayer
 62
  256
370
   -1
100
AcDbLine
 10
56
 20
149
 11
32
 21
149
  0
LINE
  5
1C7
100
AcDbEntity
  8
Cut
  6
ByLayer
 62
  256
370
   -1
100
AcDbLine
 10
32
 20
149
 11
32
 21
152
  0
LINE
  5
1C8
100
AcDbEntity
  8
Cut
  6
ByLayer
 62
  256
370
   -1
100
AcDbLine
 10
32
 20
152
 11
8
 21
152
  0
LINE
  5
1C9
100
AcDbEntity
  8
Cut
  6
ByLayer
 62
  256
370
   -1
100
AcDbLine
 10
8
 20
152
 11
8
 21
176
  0
LINE
  5
1CA
100
AcDbEntity
  8
Cut
  6
ByLayer
 62
  256
370
   -1
100
AcDbLine
 10
8
 20
176
 11
5
 21
176
  0
LINE
  5
1CB
100
AcDbEntity
  8
Cut
  6
ByLayer
 62
  256
370
   -1
100
AcDbLine
 10
5
 20
176
 11
5
 21
200
  0
LINE
  5
1CC
100
AcDbEntity
  8
Cut
  6
ByLayer
 62
  256
370
   -1
100
AcDbLine
 10
5
 20
200
 11
8
 21
200
  0
LINE
  5
1CD
100
AcDbEntity
  8
Cut
  6
ByLayer
 62
  256
370
   -1
100
AcDbLine
 10
8
 20
200
 11
8
 21
224
  0
LINE
  5
1CE
100
AcDbEntity
  8
Cut
  6
ByLayer
 62
  256
370
   -1
100
AcDbLine
 10
8
 20
224
 11
5
 21
224
  0
LINE
  5
1CF
100
AcDbEntity
  8
Cut
  6
ByLayer
 62
  256
370
   -1
100
AcDbLine
 10
5
 20
224
 11
5
 21
248
  0
LINE
  5
1D0
100
AcDbEntity
  8
Cut
  6
ByLayer
 62
  256
370
   -1
100
AcDbLine
 10
5
 20
248
 11
8
 21
248
  0
LINE
  5
1D1
100
AcDbEntity
  8
Cut
  6
ByLayer
 62
  256
370
   -1
100
AcDbLine
 10
8
 20
248
 11
8
 21
272
  0
LWPOLYLINE
  5
1D2
100
AcDbEntity
  8
Cut
  6
ByLayer
 62
  256
370
   -1
100
AcDbPolyline
 90
    4
 70
    1
 43
0
 10
13
 20
267
 10
123
 20
267
 10
123
 20
157
 10
13
 20
157
  0
MTEXT
  5
1D3
100
AcDbEntity
  8
Guide Text
  6
ByLayer
 62
  256
370
   -1
100
AcDbMText
 10
68
 20
212
 30
0
 40
10
 41
40
 71
    5
 72
    1
  1
FRONT
  7
standard
210
0
220
0
230
1
 50
0
 73
    2
 44
1
  0
LWPOLYLINE
  5
1D4
100
AcDbEntity
  8
Guidelines
  6
ByLayer
 62
  256
370
   -1
100
AcDbPolyline
 90
    4
 70
    1
 43
0
 10
144
 20
152
 10
264
 20
152
 10
264
 20
272
 10
144
 20
272
  0
LWPOLYLINE
  5
1D5
100
AcDbEntity
  8
Guidelines
  6
ByLayer
 62
  256
370
   -1
100
AcDbPolyline
 90
    4
 70
    1
 43
0
 10
149
 20
157
 10
259
 20
157
 10
259
 20
267
 10
149
 20
267
  0
LWPOLYLINE
  5
1D6
100
AcDbEntity
  8
Guidelines
  6
ByLayer
 62
  256
370
   -1
100
AcDbPolyline
 90
    4
 70
    1
 43
0
 10
141
 20
275
 10
267
 20
275
 10
267
 20
149
 10
141
 20
149
  0
LWPOLYLINE
  5
1D7
100
AcDbEntity
  8
Guidelines
  6
ByLayer
 62
  256
370
   -1
100
AcDbPolyline
 90
    4
 70
    1
 43
0
 10
264
 20
272
 10
267
 20
272
 10
267
 20
248
 10
264
 20
248
  0
LWPOLYLINE
  5
1D8
100
AcDbEntity
  8
Guidelines
  6
ByLayer
 62
  256
370
   -1
100
AcDbPolyline
 90
    4
 70
    1
 43
0
 10
267
 20
248
 10
264
 20
248
 10
264
 20
224
 10
267
 20
224
  0
LWPOLYLINE
  5
1D9
100
AcDbEntity
  8
Guidelines
  6
ByLayer
 62
  256
370
   -1
100
AcDbPolyline
 90
    4
 70
    1
 43
0
 10
264
 20
224
 10
267
 20
224
 10
267
 20
200
 10
264
 20
200
  0
LWPOLYLINE
  5
1DA
100
AcDbEntity
  8
Guidelines
  6
ByLayer
 62
  256
370
   -1
100
AcDbPolyline
 90
    4
 70
    1
 43
0
 10
267
 20
200
 10
264
 20
200
 10
264
 20
176
 10
267
 20
176
  0
LWPOLYLINE
  5
1DB
100
AcDbEntity
  8
Guidelines
  6
ByLayer
 62
  256
370
   -1
100
AcDbPolyline
 90
    4
 70
    1
 43
0
 10
264
 20
176
 10
267
 20
176
 10
267
 20
152
 10
264
 20
152
  0
LWPOLYLINE
  5
1DC
100
AcDbEntity
  8
Guidelines
  6
ByLayer
 62
  256
370
   -1
100
AcDbPolyline
 90
    4
 70
    1
 43
0
 10
264
 20
152
 10
240
 20
152
 10
240
 20
149
 10
264
 20
149
  0
LWPOLYLINE
  5
1DD
100
AcDbEntity
  8
Guidelines
  6
ByLayer
 62
  256
370
   -1
100
AcDbPolyline
 90
    4
 70
    1
 43
0
 10
240
 20
149
 10
216
 20
149
 10
216
 20
152
 10
240
 20
152
  0
LWPOLYLINE
  5
1DE
100
AcDbEntity
  8
Guidelines
  6
ByLayer
 62
  256
370
   -1
100
AcDbPolyline
 90
    4
 70
    1
 43
0
 10
216
 20
152
 10
192
 20
152
 10
192
 20
149
 10
216
 20
149
  0
LWPOLYLINE
  5
1DF
100
AcDbEntity
  8
Guidelines
  6
ByLayer
 62
  256
370
   -1
100
AcDbPolyline
 90
    4
 70
    1
 43
0
 10
192
 20
149
 10
168
 20
149
 10
168
 20
152
 10
192
 20
152
  0
LWPOLYLINE
  5
1E0
100
AcDbEntity
  8
Guidelines
  6
ByLayer
 62
  256
370
   -1
100
AcDbPolyline
 90
    4
 70
    1
 43
0
 10
168
 20
152
 10
144
 20
152
 10
144
 20
149
 10
168
 20
149
  0
LWPOLYLINE
  5
1E1
100
AcDbEntity
  8
Guidelines
  6
ByLayer
 62
  256
370
   -1
100
AcDbPolyline
 90
    4
 70
    1
 43
0
 10
144
 20
152
 10
141
 20
152
 10
141
 20
176
 10
144
 20
176
  0
LWPOLYLINE
  5
1E2
100
AcDbEntity
  8
Guidelines
  6
ByLayer
 62
  256
370
   -1
100
AcDbPolyline
 90
    4
 70
    1
 43
0
 10
141
 20
176
 10
144
 20
176
 10
144
 20
200
 10
141
 20
200
  0
LWPOLYLINE
  5
1E3
100
AcDbEntity
  8
Guidelines
  6
ByLayer
 62
  256
370
   -1
100
AcDbPolyline
 90
    4
 70
    1
 43
0
 10
144
 20
200
 10
141
 20
200
 10
141
 20
224
 10
144
 20
224
  0
LWPOLYLINE
  5
1E4
100
AcDbEntity
  8
Guidelines
  6
ByLayer
 62
  256
370
   -1
100
AcDbPolyline
 90
    4
 70
    1
 43
0
 10
141
 20
224
 10
144
 20
224
 10
144
 20
248
 10
141
 20
248
  0
LWPOLYLINE
  5
1E5
100
AcDbEntity
  8
Guidelines
  6
ByLayer
 62
  256
370
   -1
100
AcDbPolyline
 90
    4
 70
    1
 43
0
 10
144
 20
248
 10
141
 20
248
 10
141
 20
272
 10
144
 20
272
  0
LWPOLYLINE
  5
1E6
100
AcDbEntity
  8
Guidelines
  6
ByLayer
 62
  256
370
   -1
100
AcDbPolyline
 90
    4
 70
    1
 43
0
 10
144
 20
272
 10
168
 20
272
 10
168
 20
275
 10
144
 20
275
  0
LWPOLYLINE
  5
1E7
100
AcDbEntity
  8
Guidelines
  6
ByLayer
 62
  256
370
   -1
100
AcDbPolyline
 90
    4
 70
    1
 43
0
 10
168
 20
275
 10
192
 20
275
 10
192
 20
272
 10
168
 20
272
  0
LWPOLYLINE
  5
1E8
100
AcDbEntity
  8
Guidelines
  6
ByLayer
 62
  256
370
   -1
100
AcDbPolyline
 90
    4
 70
    1
 43
0
 10
192
 20
272
 10
216
 20
272
 10
216
 20
275
 10
192
 20
275
  0
LWPOLYLINE
  5
1E9
100
AcDbEntity
  8
Guidelines
  6
ByLayer
 62
  256
370
   -1
100
AcDbPolyline
 90
    4
 70
    1
 43
0
 10
216
 20
275
 10
240
 20
275
 10
240
 20
272
 10
216
 20
272
  0
LWPOLYLINE
  5
1EA
100
AcDbEntity
  8
Guidelines
  6
ByLayer
 62
  256
370
   -1
100
AcDbPolyline
 90
    4
 70
    1
 43
0
 10
264
 20
275
 10
264
 20
275
 10
264
 20
275
 10
264
 20
275
  0
LWPOLYLINE
  5
1EB
100
AcDbEntity
  8
Guidelines
  6
ByLayer
 62
  256
370
   -1
100
AcDbPolyline
 90
    4
 70
    1
 43
0
 10
240
 20
272
 10
264
 20
272
 10
264
 20
275
 10
240
 20
275
  0
LINE
  5
1EC
100
AcDbEntity
  8
Cut
  6
ByLayer
 62
  256
370
   -1
100
AcDbLine
 10
144
 20
272
 11
168
 21
272
  0
LINE
  5
1ED
100
AcDbEntity
  8
Cut
  6
ByLayer
 62
  256
370
   -1
100
AcDbLine
 10
168
 20
272
 11
168
 21
275
  0
LINE
  5
1EE
100
AcDbEntity
  8
Cut
  6
ByLayer
 62
  256
370
   -1
100
AcDbLine
 10
168
 20
275
 11
192
 21
275
  0
LINE
  5
1EF
100
AcDbEntity
  8
Cut
  6
ByLayer
 62
  256
370
   -1
100
AcDbLine
 10
192
 20
275
 11
192
 21
272
  0
LINE
  5
1F0
100
AcDbEntity
  8
Cut
  6
ByLayer
 62
  256
370
   -1
100
AcDbLine
 10
192
 20
272
 11
216
 21
272
  0
LINE
  5
1F1
100
AcDbEntity
  8
Cut
  6
ByLayer
 62
  256
370
   -1
100
AcDbLine
 10
216
 20
272
 11
216
 21
275
  0
LINE
  5
1F2
100
AcDbEntity
  8
Cut
  6
ByLayer
 62
  256
370
   -1
100
AcDbLine
 10
216
 20
275
 11
240
 21
275
  0
LINE
  5
1F3
100
AcDbEntity
  8
Cut
  6
ByLayer
 62
  256
370
   -1
100
AcDbLine
 10
240
 20
275
 11
240
 21
272
  0
LINE
  5
1F4
100
AcDbEntity
  8
Cut
  6
ByLayer
 62
  256
370
   -1
100
AcDbLine
 10
240
 20
272
 11
264
 21
272
  0
LINE
  5
1F5
100
AcDbEntity
  8
Cut
  6
ByLayer
 62
  256
370
   -1
100
AcDbLine
 10
264
 20
272
 11
264
 21
248
  0
LINE
  5
1F6
100
AcDbEntity
  8
Cut
  6
ByLayer
 62
  256
370
   -1
100
AcDbLine
 10
264
 20
248
 11
267
 21
248
  0
LINE
  5
1F7
100
AcDbEntity
  8
Cut
  6
ByLayer
 62
  256
370
   -1
100
AcDbLine
 10
267
 20
248
 11
267
 21
224
  0
LINE
  5
1F8
100
AcDbEntity
  8
Cut
  6
ByLayer
 62
  256
370
   -1
100
AcDbLine
 10
267
 20
224
 11
264
 21
224
  0
LINE
  5
1F9
100
AcDbEntity
  8
Cut
  6
ByLayer
 62
  256
370
   -1
100
AcDbLine
 10
264
 20
224
 11
264
 21
200
  0
LINE
  5
1FA
100
AcDbEntity
  8
Cut
  6
ByLayer
 62
  256
370
   -1
100
AcDbLine
 10
264
 20
200
 11
267
 21
200
  0
LINE
  5
1FB
100
AcDbEntity
  8
Cut
  6
ByLayer
 62
  256
370
   -1
100
AcDbLine
 10
267
 20
200
 11
267
 21
176
  0
LINE
  5
1FC
100
AcDbEntity
  8
Cut
  6
ByLayer
 62
  256
370
   -1
100
AcDbLine
 10
267
 20
176
 11
264
 21
176
  0
LINE
  5
1FD
100
AcDbEntity
  8
Cut
  6
ByLayer
 62
  256
370
   -1
100
AcDbLine
 10
264
 20
176
 11
264
 21
152
  0
LINE
  5
1FE
100
AcDbEntity
  8
Cut
  6
ByLayer
 62
  256
370
   -1
100
AcDbLine
 10
264
 20
152
 11
240
 21
152
  0
LINE
  5
1FF
100
AcDbEntity
  8
Cut
  6
ByLayer
 62
  256
370
   -1
100
AcDbLine
 10
240
 20
152
 11
240
 21
149
  0
LINE
  5
200
100
AcDbEntity
  8
Cut
  6
ByLayer
 62
  256
370
   -1
100
AcDbLine
 10
240
 20
149
 11
216
 21
149
  0
LINE
  5
201
100
AcDbEntity
  8
Cut
  6
ByLayer
 62
  256
370
   -1
100
AcDbLine
 10
216
 20
149
 11
216
 21
152
  0
LINE
  5
202
100
AcDbEntity
  8
Cut
  6
ByLayer
 62
  256
370
   -1
100
AcDbLine
 10
216
 20
152
 11
192
 21
152
  0
LINE
  5
203
100
AcDbEntity
  8
Cut
  6
ByLayer
 62
  256
370
   -1
100
AcDbLine
 10
192
 20
152
 11
192
 21
149
  0
LINE
  5
204
100
AcDbEntity
  8
Cut
  6
ByLayer
 62
  256
370
   -1
100
AcDbLine
 10
192
 20
149
 11
168
 21
149
  0
LINE
  5
205
100
AcDbEntity
  8
Cut
  6
ByLayer
 62
  256
370
   -1
100
AcDbLine
 10
168
 20
149
 11
168
 21
152
  0
LINE
  5
206
100
AcDbEntity
  8
Cut
  6
ByLayer
 62
  256
370
   -1
100
AcDbLine
 10
168
 20
152
 11
144
 21
152
  0
LINE
  5
207
100
AcDbEntity
  8
Cut
  6
ByLayer
 62
  256
370
   -1
100
AcDbLine
 10
144
 20
152
 11
144
 21
176
  0
LINE
  5
208
100
AcDbEntity
  8
Cut
  6
ByLayer
 62
  256
370
   -1
100
AcDbLine
 10
144
 20
176
 11
141
 21
176
  0
LINE
  5
209
100
AcDbEntity
  8
Cut
  6
ByLayer
 62
  256
370
   -1
100
AcDbLine
 10
141
 20
176
 11
141
 21
200
  0
LINE
  5
20A
100
AcDbEntity
  8
Cut
  6
ByLayer
 62
  256
370
   -1
100
AcDbLine
 10
141
 20
200
 11
144
 21
200
  0
LINE
  5
20B
100
AcDbEntity
  8
Cut
  6
ByLayer
 62
  256
370
   -1
100
AcDbLine
 10
144
 20
200
 11
144
 21
224
  0
LINE
  5
20C
100
AcDbEntity
  8
Cut
  6
ByLayer
 62
  256
370
   -1
100
AcDbLine
 10
144
 20
224
 11
141
 21
224
  0
LINE
  5
20D
100
AcDbEntity
  8
Cut
  6
ByLayer
 62
  256
370
   -1
100
AcDbLine
 10
141
 20
224
 11
141
 21
248
  0
LINE
  5
20E
100
AcDbEntity
  8
Cut
  6
ByLayer
 62
  256
370
   -1
100
AcDbLine
 10
141
 20
248
 11
144
 21
248
  0
LINE
  5
20F
100
AcDbEntity
  8
Cut
  6
ByLayer
 62
  256
370
   -1
100
AcDbLine
 10
144
 20
248
 11
144
 21
272
  0
MTEXT
  5
210
100
AcDbEntity
  8
Guide Text
  6
ByLayer
 62
  256
370
   -1
100
AcDbMText
 10
204
 20
212
 30
0
 40
10
 41
32.22222222222222
 71
    5
 72
    1
  1
BACK
  7
standard
210
0
220
0
230
1
 50
0
 73
    2
 44
1
  0
LWPOLYLINE
  5
211
100
AcDbEntity
  8
Guidelines
  6
ByLayer
 62
  256
370
   -1
100
AcDbPolyline
 90
    4
 70
    1
 43
0
 10
244
 20
152
 10
239
 20
152
 10
239
 20
157
 10
244
 20
157
  0
LWPOLYLINE
  5
212
100
AcDbEntity
  8
Guidelines
  6
ByLayer
 62
  256
370
   -1
100
AcDbPolyline
 90
    4
 70
    1
 43
0
 10
244
 20
152
 10
239
 20
152
 10
239
 20
154
 10
244
 20
154
  0
LWPOLYLINE
  5
213
100
AcDbEntity
  8
Guidelines
  6
ByLayer
 62
  256
370
   -1
100
AcDbPolyline
 90
    4
 70
    1
 43
0
 10
241
 20
157
 10
242
 20
157
 10
242
 20
154
 10
241
 20
154
  0
LINE
  5
214
100
AcDbEntity
  8
Cut
  6
ByLayer
 62
  256
370
   -1
100
AcDbLine
 10
149
 20
157
 11
149
 21
267
  0
LINE
  5
215
100
AcDbEntity
  8
Cut
  6
ByLayer
 62
  256
370
   -1
100
AcDbLine
 10
149
 20
267
 11
259
 21
267
  0
LINE
  5
216
100
AcDbEntity
  8
Cut
  6
ByLayer
 62
  256
370
   -1
100
AcDbLine
 10
259
 20
267
 11
259
 21
157
  0
LINE
  5
217
100
AcDbEntity
  8
Cut
  6
ByLayer
 62
  256
370
   -1
100
AcDbLine
 10
259
 20
157
 11
242
 21
157
  0
LINE
  5
218
100
AcDbEntity
  8
Cut
  6
ByLayer
 62
  256
370
   -1
100
AcDbLine
 10
241
 20
157
 11
149
 21
157
  0
LINE
  5
219
100
AcDbEntity
  8
Cut
  6
ByLayer
 62
  256
370
   -1
100
AcDbLine
 10
242
 20
156
 11
244
 21
156
  0
LINE
  5
21A
100
AcDbEntity
  8
Cut
  6
ByLayer
 62
  256
370
   -1
100
AcDbLine
 10
244
 20
156
 11
244
 21
154
  0
LINE
  5
21B
100
AcDbEntity
  8
Cut
  6
ByLayer
 62
  256
370
   -1
100
AcDbLine
 10
244
 20
154
 11
239
 21
154
  0
LINE
  5
21C
100
AcDbEntity
  8
Cut
  6
ByLayer
 62
  256
370
   -1
100
AcDbLine
 10
239
 20
154
 11
239
 21
156
  0
LINE
  5
21D
100
AcDbEntity
  8
Cut
  6
ByLayer
 62
  256
370
   -1
100
AcDbLine
 10
239
 20
156
 11
241
 21
156
  0
LINE
  5
21E
100
AcDbEntity
  8
Cut
  6
ByLayer
 62
  256
370
   -1
100
AcDbLine
 10
241
 20
156
 11
241
 21
157
  0
LINE
  5
21F
100
AcDbEntity
  8
Cut
  6
ByLayer
 62
  256
370
   -1
100
AcDbLine
 10
242
 20
157
 11
242
 21
156
  0
LINE
  5
220
100
AcDbEntity
  8
Cut
  6
ByLayer
 62
  256
370
   -1
100
AcDbLine
 10
244
 20
152
 11
240
 21
152
  0
LINE
  5
221
100
AcDbEntity
  8
Vector
  6
ByLayer
 62
  256
370
   -1
100
AcDbLine
 10
92.50000000000003
 20
69.5
 11
95.50000000000003
 21
74.5
  0
LINE
  5
222
100
AcDbEntity
  8
Vector
  6
ByLayer
 62
  256
370
   -1
100
AcDbLine
 10
95.50000000000003
 20
74.5
 11
100.5
 21
74.5
  0
LINE
  5
223
100
AcDbEntity
  8
Vector
  6
ByLayer
 62
  256
370
   -1
100
AcDbLine
 10
100.5
 20
74.5
 11
103.5
 21
69.5
  0
LINE
  5
224
100
AcDbEntity
  8
Vector
  6
ByLayer
 62
  256
370
   -1
100
AcDbLine
 10
103.5
 20
69.5
 11
100.5
 21
64.5
  0
LINE
  5
225
100
AcDbEntity
  8
Vector
  6
ByLayer
 62
  256
370
   -1
100
AcDbLine
 10
100.5
 20
64.5
 11
95.50000000000003
 21
64.5
  0
LINE
  5
226
100
AcDbEntity
  8
Vector
  6
ByLayer
 62
  256
370
   -1
100
AcDbLine
 10
95.50000000000003
 20
64.5
 11
92.50000000000003
 21
69.5
  0
LINE
  5
227
100
AcDbEntity
  8
Vector
  6
ByLayer
 62
  256
370
   -1
100
AcDbLine
 10
103.5
 20
62.5
 11
106.5
 21
67.5
  0
LINE
  5
228
100
AcDbEntity
  8
Vector
  6
ByLayer
 62
  256
370
   -1
100
AcDbLine
 10
106.5
 20
67.5
 11
111.5
 21
67.5
  0
LINE
  5
229
100
AcDbEntity
  8
Vector
  6
ByLayer
 62
  256
370
   -1
100
AcDbLine
 10
111.5
 20
67.5
 11
114.5
 21
62.5
  0
LINE
  5
22A
100
AcDbEntity
  8
Vector
  6
ByLayer
 62
  256
370
   -1
100
AcDbLine
 10
114.5
 20
62.5
 11
111.5
 21
57.5
  0
LINE
  5
22B
100
AcDbEntity
  8
Vector
  6
ByLayer
 62
  256
370
   -1
100
AcDbLine
 10
111.5
 20
57.5
 11
106.5
 21
57.5
  0
LINE
  5
22C
100
AcDbEntity
  8
Vector
  6
ByLayer
 62
  256
370
   -1
100
AcDbLine
 10
106.5
 20
57.5
 11
103.5
 21
62.5
  0
LINE
  5
22D
100
AcDbEntity
  8
Vector
  6
ByLayer
 62
  256
370
   -1
100
AcDbLine
 10
103.5
 20
76.5
 11
106.5
 21
81.5
  0
LINE
  5
22E
100
AcDbEntity
  8
Vector
  6
ByLayer
 62
  256
370
   -1
100
AcDbLine
 10
106.5
 20
81.5
 11
111.5
 21
81.5
  0
LINE
  5
22F
100
AcDbEntity
  8
Vector
  6
ByLayer
 62
  256
370
   -1
100
AcDbLine
 10
111.5
 20
81.5
 11
114.5
 21
76.5
  0
LINE
  5
230
100
AcDbEntity
  8
Vector
  6
ByLayer
 62
  256
370
   -1
100
AcDbLine
 10
114.5
 20
76.5
 11
111.5
 21
71.5
  0
LINE
  5
231
100
AcDbEntity
  8
Vector
  6
ByLayer
 62
  256
370
   -1
100
AcDbLine
 10
111.5
 20
71.5
 11
106.5
 21
71.5
  0
LINE
  5
232
100
AcDbEntity
  8
Vector
  6
ByLayer
 62
  256
370
   -1
100
AcDbLine
 10
106.5
 20
71.5
 11
103.5
 21
76.5
  0
MTEXT
  5
233
100
AcDbEntity
  8
Guide Text
  6
ByLayer
 62
  256
370
   -1
100
AcDbMText
 10
105
 20
68
 30
0
 40
5
 41
11.66666666666667
 71
    5
 72
    1
  1
TOP
  7
standard
210
0
220
0
230
1
 50
0
 73
    2
 44
1
  0
MTEXT
  5
234
100
AcDbEntity
  8
Guide Text
  6
ByLayer
 62
  256
370
   -1
100
AcDbMText
 10
35
 20
68
 30
0
 40
5
 41
25.55555555555556
 71
    5
 72
    1
  1
BOTTOM
  7
standard
210
0
220
0
230
1
 50
0
 73
    2
 44
1
  0
MTEXT
  5
235
100
AcDbEntity
  8
Marker
  6
ByLayer
 62
  256
370
   -1
100
AcDbMText
 10
35
 20
68
 30
0
 40
3
 41
68.99999936399374
 71
    5
 72
    1
  1
NORTHANWIND :: 10 HRFEST 227\P\P[ AUTOPHAGY ]
  7
standard
210
0
220
0
230
1
 50
90
 73
    2
 44
1
  0
ENDSEC
  0
SECTION
  2
OBJECTS
  0
DICTIONARY
  5
C
330
0
100
AcDbDictionary
281
    1
  3
ACAD_GROUP
350
D
  0
DICTIONARY
  5
D
330
C
100
AcDbDictionary
281
    1
  0
ENDSEC
  0
EOF
